<svg xmlns="http://www.w3.org/2000/svg" xmlns:xlink="http://www.w3.org/1999/xlink" preserveAspectRatio="xMidYMid meet" version="1.0" viewBox="-0.0 -0.2 270.8 451.7" zoomAndPan="magnify" style="fill: rgb(23, 53, 84);" role="img" aria-label="Lined Corporate Guy Presenting"><g id="__id1288_szm29o5vo6"><path d="M270.705,122.268c0.069-0.636-0.105-1.207-0.48-1.564c-0.706-0.675-1.797-0.388-2.263-0.266 l-18.42,4.831c0.32-0.232,0.787-0.413,1.224-0.523c3.872-0.982,7.719-2.221,11.435-3.681c0.873-0.343,1.706-0.708,2.305-1.405 c0.65-0.756,0.941-2.037,0.201-2.922c-0.784-0.936-2.111-0.801-3.181-0.58l-15.648,3.248c1.428-0.598,2.795-1.342,4.04-2.245 c1.393-1.011,2.029-2.074,1.893-3.157c-0.183-1.454-1.666-2.278-3.085-2.245c-1.043,0.03-1.986,0.432-2.898,0.82l-0.553,0.232 c-1.743,0.708-3.638,1.131-5.471,1.54c-2.1,0.468-4.271,0.952-6.277,1.87c-2.614,1.195-4.857,3.078-6.486,5.446 c-0.53,0.771-0.993,1.591-1.441,2.384c-0.606,1.075-1.18,2.09-1.914,3.011c-1.511,1.895-3.716,3.282-6.076,3.843 c-0.038-0.013-0.078-0.012-0.118-0.016l-0.458-0.869c0,0-23.49,7.58-28.851,9.275c0.243-0.167,0.475-0.377,0.649-0.655 c0.288-0.457,0.361-1.022,0.207-1.592c-0.192-0.707-0.719-1.358-1.375-1.699c-0.081-0.042-0.162-0.08-0.245-0.115 c0.315-0.234,0.579-0.532,0.767-0.913c0.284-0.581,0.313-1.241,0.084-1.911c-0.288-0.838-0.944-1.575-1.757-1.97 c-0.665-0.323-1.384-0.457-2.091-0.499c0.225-0.275,0.362-0.595,0.406-0.957c0.141-1.137-0.802-2.041-1.652-2.468 c-1.531-0.77-3.305-0.762-4.766-0.766c-6.241,0.007-12.544,0.148-18.8,0.374c0.752-0.624,1.75-0.939,2.549-1.098 c0.562-0.112,1.151-0.182,1.722-0.249c0.802-0.095,1.63-0.193,2.44-0.41c1.738-0.466,3.024-1.472,3.528-2.76 c0.333-0.852,0.24-1.892-0.243-2.715c-0.407-0.694-1.029-1.131-1.75-1.23c-0.755-0.099-1.475,0.171-2.104,0.415l-0.153,0.059 c-3.284,1.255-6.919,1.515-10.435,1.767l-0.462,0.033c-2.652,0.191-5.02,0.442-7.122,1.583c-2.062,1.118-3.607,3.005-4.894,4.686 c-1.281,1.675-2.502,3.407-3.667,5.177c-15.104-13.382-30.208-26.764-45.312-40.146c-6.781-6.008-13.678-12.07-21.809-15.998 l-1.351-4.757c-0.05-0.175-0.19-0.309-0.367-0.35c-0.054-0.012-0.106,0.001-0.159,0.006c1.487-2.628,2.467-5.476,2.818-8.386 c0.586-4.867,0.112-9.828-0.491-14.901c1.626-0.357,3.117-0.951,4.434-1.794c0.202-0.129,0.578-0.371,0.737-0.791 c0.147-0.39,0.207-1.165-1.048-1.972c-2.095-1.345-3.925-2.608-5.113-4.433c-1.277-1.962-1.673-4.458-2.021-6.662L67.26,18.079 c2.519-2.164,4.1-5.096,4.346-8.162c0.267-3.316-0.991-6.688-3.363-9.021c-0.275-0.271-0.585-0.545-0.979-0.714 c-0.922-0.396-1.946-0.055-2.623,0.169c-8.038,2.672-16.288,5.037-24.522,7.027c-2.241,0.542-4.436,1.041-6.647,1.2 c-0.627,0.045-1.261,0.064-1.894,0.083c-1.755,0.053-3.569,0.107-5.273,0.723c-3.542,1.28-5.691,4.65-6.872,7.252 c-3.64,8.025-3.076,18.001,1.508,26.684c1.339,2.536,2.985,4.926,4.577,7.236l7.148,10.375c0.192,0.279,0.422,0.599,0.724,0.865 l1.151,11.771l-5.749,8.578c-0.085,0.128-0.107,0.288-0.06,0.435c0.025,0.076,0.07,0.143,0.126,0.198 c-7.379,6.575-14.538,14.075-16.871,23.629c-2.388,9.776,0.687,19.961,3.666,29.573c6.422,20.722,12.532,41.613,15.857,63.15 c-0.058,0.193-0.11,0.387-0.167,0.58c-0.014,0.021-0.033,0.037-0.043,0.06c-0.193,0.43-18.148,42.053,12.338,102.879 c0.182,0.369,0.369,0.736,0.553,1.104c0.074,0.145,0.146,0.289,0.221,0.435c1.913,3.805,3.947,7.551,6.091,11.234 c2.487,4.5,4.925,8.918,7.307,13.238l-42.129,64.891c-0.134,0.206-0.098,0.479,0.084,0.644l3.126,2.828 c-0.692,0.766-1.7,1.24-2.732,1.262c-0.221,0.009-0.443-0.009-0.665-0.022c-0.344-0.021-0.7-0.043-1.066-0.004 c-1.54,0.156-2.715,1.247-3.788,2.352c-3.103,3.192-6.142,6.54-9.359,10.084L0.13,411.96c-0.166,0.182-0.174,0.457-0.02,0.649 c11.178,13.897,23.608,26.946,36.943,38.785c0.095,0.084,0.214,0.126,0.332,0.126c0.121,0,0.238-0.051,0.333-0.138 c9.553-1.086,18.134-1.904,26.219-2.499c0.269-0.021,0.474-0.249,0.463-0.519c-0.132-3.389-3.387-5.835-6.389-6.995 c-1.356-0.523-2.776-0.896-4.15-1.256c-1.696-0.444-3.451-0.903-5.043-1.647c-4.299-2.008-7.045-5.866-8.592-8.75 c-1.963-3.661-3.144-7.73-4.272-11.679c0.87-1.304,1.678-2.365,2.507-3.309l1.51,1.366c0.092,0.083,0.212,0.129,0.335,0.129 c0.019,0,0.038-0.001,0.056-0.003c0.143-0.017,0.271-0.093,0.354-0.211l36.437-52.148c19.722,36.006,32.426,59.554,32.607,59.89 c0.088,0.163,0.258,0.263,0.44,0.263c0.014,0,0.027-0.001,0.041-0.002l1.793-0.147c0.133,0.206,0.022,0.789-0.348,1.318 c-0.221,0.314-0.5,0.604-0.795,0.909c-0.269,0.278-0.547,0.565-0.79,0.886c-1.505,1.983-3.025,4.287-2.888,6.34l0.793,11.751 c-0.111,0.268,0.108,0.543,0.355,0.852c0.095,0.119,0.239,0.188,0.391,0.188c0.006,0,0.012,0,0.018,0l63.737-2.26 c0.214-0.008,0.399-0.151,0.461-0.356c0.56-1.86-0.327-4.101-2.206-5.572c-1.606-1.258-3.638-1.912-5.602-2.544l-0.137-0.044 c-10.069-3.244-20.618-6.742-29.274-10.72c-0.328-0.969-0.745-1.799-1.168-2.591l0.883-0.072c0.149-0.012,0.285-0.091,0.371-0.215 c0.085-0.123,0.11-0.278,0.068-0.423l-32.246-111.037c0.002-0.005,0.007-0.008,0.009-0.013 c20.912-71.503,0.283-113.105,0.072-113.518c-0.081-0.156-0.232-0.242-0.394-0.259l-1.678-7.712l0.26-0.148 c0.236-0.135,0.318-0.433,0.19-0.671c4.336-2.962,33.928-23.183,33.899-23.336c11.152,6.044,23.192,12.277,35.807,10.954 c8.314-0.872,15.896-4.966,23.229-8.979l32.225-17.134l-1.76-3.341c0.021-0.019,0.047-0.029,0.065-0.052 c0.641-0.812,1.214-0.808,1.688-0.698c0.307,0.071,0.603,0.183,0.897,0.294c0.325,0.122,0.662,0.248,1.021,0.331 c1.682,0.387,3.377-0.256,4.967-0.948c4.473-1.948,8.937-4.083,13.271-6.345c4.997,0.184,10.062-0.125,15.066-0.906 c2.127-0.333,2.705-1.26,2.815-1.979c0.156-1.023-0.617-1.898-1.462-2.233c-0.803-0.319-1.652-0.259-2.406-0.207l-6.853,0.482 c1.986-0.794,4.108-1.312,6.179-1.816c2.594-0.633,5.276-1.287,7.726-2.476c1.537-0.747,2.304-1.76,2.156-2.853 c-0.128-0.958-0.931-1.573-1.728-1.805C269.817,124.305,270.578,123.458,270.705,122.268z M1.158,412.316l0.146-0.161 c0.12,0.271,0.266,0.564,0.455,0.89C1.56,412.8,1.355,412.56,1.158,412.316z M54.442,67.413c0.028,0.082,0.06,0.163,0.089,0.244 c-0.045,0.054-0.08,0.115-0.099,0.186C54.438,67.699,54.435,67.556,54.442,67.413z M66.79,70.029 c0.029-0.078,0.07-0.152,0.097-0.231c0.018,0.071,0.021,0.144,0.037,0.215C66.877,70.01,66.833,70.018,66.79,70.029z M58.356,329.654c0.034,0.062,0.068,0.123,0.102,0.185l-10.821,16.326L58.356,329.654z" style="fill: rgb(23, 53, 84);"></path></g><g><g id="__id1289_szm29o5vo6"><path d="M66.573,18.213c-6.015,1.318-12.207,1.824-18.607,1.771c-1.381,3.854-3.171,7.562-5.331,11.04 c-0.342,0.551-0.702,1.12-0.776,1.764c-0.059,0.516,0.072,1.034,0.203,1.537c1.374,5.267,2.884,10.498,4.527,15.688 c0.135,0.426,0.277,0.864,0.561,1.21c0.34,0.415,0.846,0.653,1.334,0.874c1.986,0.901,3.991,1.762,6.012,2.583 c0.521-2.649,1.223-5.356,2.872-7.494c1.09-1.413,2.57-2.523,4.233-3.172c1.582-0.617,3.462-0.79,4.913,0.092 c0.564,0.342,1.03,0.823,1.557,1.22c2.831,2.133,7.441,1.217,9.241-1.837c-2.094-1.227-4.243-2.504-5.707-4.44 c-1.634-2.162-2.237-4.909-2.784-7.563C68.157,28.27,67.515,25.05,66.573,18.213z M35.109,73.876 c-0.19-0.071,28.035,3.82,28.035,3.82c2.567-1.471,4.086-4.584,3.664-7.513c-1.352,2.829-3.762,5.137-6.648,6.364 c0.986-1.805,1.096-4.064,0.29-5.956c-0.506,1.507-1.423,2.874-2.627,3.912c-1.319-2.291-2.412-4.711-3.258-7.214 c-0.149,1.983-0.298,3.966-0.447,5.948c-2.742-3.349-5.619-6.585-8.624-9.7c-0.461-0.478-0.942-0.965-1.55-1.232 c-0.597-0.262-1.266-0.292-1.918-0.317c-2.676-0.103-5.351-0.207-8.027-0.31C34.696,66.673,35.053,70.272,35.109,73.876z M142.984,150.403c3.389-1.75,6.995-3.549,10.801-3.306c0.054-0.054,12.433-0.584,12.433-0.584l11.26-0.56 c1.165-0.513,2.472-0.56,3.729-0.765c1.256-0.205,2.577-0.638,3.326-1.667c0.75-1.029,0.569-2.776-0.609-3.26 c1.195-0.251,2.36-0.641,3.465-1.16c0.444-0.208,0.905-0.463,1.132-0.898c0.335-0.641,0.022-1.467-0.524-1.942 c-0.546-0.475-1.269-0.681-1.966-0.874c1.37-0.322,1.89-2.22,1.184-3.438c-0.706-1.218-2.205-1.773-3.612-1.816 c1.036-0.848,0.512-2.68-0.637-3.368c-1.149-0.688-2.588-0.577-3.921-0.444c0.112-0.012-20.027-0.115-20.027-0.115 c1.016-1.294,2.782-1.695,4.414-1.905s3.374-0.352,4.686-1.345s1.834-3.214,0.551-4.245c-1.238-0.995-3.033-0.247-4.532,0.276 c-5.731,1.999-12.73,0.153-17.601,3.774c-1.676,1.246-2.879,3.01-4.05,4.74c-2.123,3.137-4.245,6.273-6.368,9.41L142.984,150.403z M217.706,131.331c0,0,7.706,14.273,7.747,14.41c0.559-0.716,1.592-0.875,2.491-0.743c0.899,0.132,1.753,0.494,2.655,0.604 c1.943,0.239,3.817-0.699,5.55-1.609c3.686-1.936,7.373-3.872,10.808-5.711c5.332,0.085,10.672-0.347,15.921-1.288 c0.81-0.145,1.77-0.437,1.978-1.233c0.246-0.943-0.795-1.732-1.747-1.942c-1.02-0.225-2.08-0.139-3.121-0.053 c-2.51,0.208-5.02,0.417-7.599,0.589c5.025-2.538,10.939-2.836,16.001-5.3c0.526-0.256,1.059-0.55,1.401-1.025 c0.408-0.566,0.475-1.359,0.17-1.987c-0.305-0.627-0.971-1.063-1.578-1.023c0.575-0.416,1.136-0.887,1.472-1.512 c0.335-0.625,0.402-1.438,0.001-2.024c-0.352-0.514-0.997-0.764-1.619-0.789c-0.622-0.025-1.235,0.141-1.835,0.307 c-2.955,0.815-5.909,1.629-8.864,2.444c-2.727,0.752-5.455,1.504-8.212,2.388c-0.075-0.559,0.48-0.983,0.98-1.242 c4.198-2.176,9.451-2.131,13.172-5.048c0.514-0.403,1.024-0.932,1.035-1.585c0.014-0.817-0.802-1.453-1.615-1.54 c-0.812-0.086-1.608,0.229-2.364,0.538c0,0-11.296,2.608-11.263,2.555c-2.152,0.097-4.299,0.306-6.43,0.628 c2.215-0.65,4.318-1.681,6.188-3.034c1.021-0.738,2.039-1.688,2.204-2.937c0.077-0.582-0.077-1.236-0.546-1.59 c-0.434-0.329-1.027-0.333-1.57-0.289c-1.433,0.116-2.847,0.47-4.376,0.836c-2.323,0.775-4.645,1.55-6.968,2.326 c-2.908,0.971-5.916,2-8.144,4.106c-2.01,1.901-3.186,4.493-4.702,6.806C223.412,128.679,221.271,130.885,217.706,131.331z M33.207,37.206c-0.422,0.42-0.684,0.975-0.877,1.538c-0.728,2.121-0.556,4.535,0.466,6.532c0.262,0.512,0.586,1.007,1.039,1.362 c0.415,0.326,0.918,0.518,1.418,0.688c1.764,0.599,3.858,0.929,5.371-0.157c-1.234-3.285-2.153-6.688-2.74-10.148 C36.14,36.242,34.322,36.095,33.207,37.206z" style="fill: rgb(244, 244, 244);"></path></g><g id="__id1290_szm29o5vo6"><path d="M45.573,196.211c10.05-0.402,20.1-0.804,30.15-1.189c5.679-0.218,11.367-0.43,17.041-0.117 c3.585,0.198,7.249,0.632,10.45,2.256c4.143,9.05,6.83,18.777,8.006,28.685c1.402,12.474,1.671,25.408,0.91,38.281 c-1.246,14.857-4.008,29.699-8.206,44.123c-0.398,0.588-0.465,1.151-0.531,1.714c-0.077,0.046,31.763,111.382,31.763,111.382 l-24.915,2.196L77.16,362.933l-36.795,52.789l-24.273-21.969l42.94-64.781c-12.919-19.027-23.24-40.014-28.571-62.386 s-5.528-46.192,1.254-68.169C37.687,196.53,41.647,196.368,45.573,196.211z M69.037,52.522c-2.129-0.268-4.259-0.537-6.388-0.805 c-0.169-0.021-0.349-0.041-0.501,0.035c-0.262,0.131-0.321,0.478-0.306,0.771c0.058,1.154,0.764,2.221,1.728,2.857 s2.157,0.868,3.31,0.8c0.915-0.054,1.897-0.341,2.42-1.093C69.748,54.445,69.75,53.525,69.037,52.522z" style="fill: rgb(255, 255, 255);"></path></g><g id="__id1291_szm29o5vo6"><path d="M63.3,77.856l-27.751-4.573c0,0-6.132,8.731-5.638,8.561c-7.742,6.798-15.48,14.555-17.925,24.563 c-2.388,9.776,0.687,19.961,3.666,29.573c6.524,21.052,12.733,42.276,16.02,64.178c-0.036,0.036-0.073,0.073-0.109,0.109 c0.036,0,0.073,0,0.109,0c0,0,19.853-1.057,21.109,0.308c4.7,2.871,10.302,4.832,15.597,3.616c5.822-1.07,11.443-3.22,16.492-6.309 l18.654-0.561l-1.957-8.993c0,0,34.477-23.544,34.446-23.709c11.152,6.044,23.192,12.277,35.807,10.954 c8.314-0.872,15.896-4.966,23.229-8.979l32.225-17.134l-10.243-19.441c0,0-30.029,9.689-29.945,9.612 c-1.303,0.223-2.607,0.446-3.91,0.67c0.929,0.207,1.732,0.993,1.851,1.937c0.119,0.944-0.537,1.955-1.472,2.133l-24.27,2.359 l-10.224,0.856l-6.187,2.851l-6.243-13.716c0,0,2.668-5.013,2.519-5.222c-15.148-13.421-30.297-26.842-45.445-40.264 C86.738,85.06,79.658,78.81,71.23,74.898l-1.069-4.426L63.3,77.856z" style="fill: rgb(23, 53, 84);"></path></g><g id="__id1292_szm29o5vo6"><path d="M65.265,25.966c0.184,0.206,0.166,0.522-0.04,0.706c-0.207,0.183-0.521,0.166-0.706-0.04 c-1.232-1.381-3.474-1.866-5.332-1.154c-1.761,0.677-3.184,2.342-3.713,4.345c-0.059,0.225-0.262,0.373-0.483,0.373 c-0.042,0-0.085-0.005-0.128-0.017c-0.267-0.07-0.426-0.344-0.356-0.611c0.609-2.309,2.265-4.234,4.321-5.024 C61.095,23.673,63.741,24.259,65.265,25.966z M55.242,35.28c-0.143-0.236-0.451-0.31-0.687-0.168 c-1.231,0.747-2.52,1.422-3.831,2.007c-0.252,0.113-0.366,0.408-0.253,0.66c0.083,0.186,0.266,0.296,0.457,0.296 c0.068,0,0.137-0.014,0.203-0.043c1.35-0.603,2.676-1.297,3.942-2.065C55.309,35.823,55.385,35.516,55.242,35.28z M56.127,37.593 c-0.675,0.864-1.235,1.814-1.663,2.823c-0.108,0.254,0.011,0.548,0.265,0.656c0.064,0.027,0.13,0.04,0.195,0.04 c0.194,0,0.379-0.114,0.46-0.305c0.394-0.929,0.909-1.803,1.53-2.599c0.17-0.217,0.131-0.532-0.086-0.702 C56.61,37.336,56.296,37.375,56.127,37.593z M62.922,32.914c-0.725,0-1.312,0.588-1.312,1.312c0,0.725,0.588,1.312,1.312,1.312 c0.725,0,1.312-0.588,1.312-1.312C64.234,33.502,63.647,32.914,62.922,32.914z M58.774,203.988c1.87,0.553,3.891,0.83,6.013,0.83 c2.442,0,5.018-0.366,7.648-1.096c4.515-1.253,8.664-3.358,12.542-5.415l16.949-9.682c0.239-0.137,0.323-0.442,0.187-0.682 c-0.139-0.242-0.447-0.323-0.683-0.186l-16.936,9.674c-3.814,2.023-7.909,4.101-12.327,5.327 c-4.736,1.314-9.269,1.409-13.109,0.271c-4.969-1.471-9.212-5.168-11.349-9.889c-0.025-0.056-0.06-0.106-0.102-0.147 c-0.988-1.41-18.399-33.308-27.524-50.082c-0.132-0.243-0.437-0.331-0.678-0.201c-0.243,0.132-0.333,0.436-0.201,0.678 c0,0,6.832,12.558,13.699,25.111c10.585,19.349,13.123,23.957,13.945,25.03l-0.049,0.022 C49.054,198.534,53.53,202.435,58.774,203.988z M189.038,137.046c0.154,0.569,0.081,1.135-0.207,1.592 c-0.333,0.531-0.874,0.822-1.308,1.016c-1.025,0.457-2.096,0.673-3.253,0.829c0.74,0.47,1.334,1.299,1.235,2.239 c-0.094,0.898-0.771,2.051-3.467,2.441c-7.283,1.054-14.71,1.69-22.074,1.891l-0.564,0.015c-5.62,0.149-11.431,0.303-15.812,3.623 c-0.094,0.1-0.222,0.169-0.353,0.173c-0.006,0-0.012,0-0.019,0c-0.189,0-0.375-0.076-0.458-0.247l-6.484-13.308 c-0.007,0-0.012,0.005-0.019,0.005c-0.084,0-0.169-0.021-0.247-0.065c-0.025-0.014-0.042-0.037-0.063-0.055l-47.978,24.603 c-0.071,0.037-0.15,0.055-0.229,0.055c-0.056,0-0.112-0.009-0.166-0.028c-0.129-0.045-0.234-0.142-0.29-0.267 c-1.127-2.516-2.243-5.038-3.359-7.562c-6.073-13.729-12.354-27.924-20.425-40.825c-2.52-4.028-5.351-8.232-8.972-11.687 c-3.903-3.725-8.284-6.079-12.668-6.809c-0.272-0.045-0.457-0.303-0.411-0.575c0.045-0.273,0.3-0.461,0.575-0.411 c4.583,0.763,9.146,3.208,13.195,7.072c3.7,3.531,6.574,7.796,9.129,11.88c8.11,12.961,14.404,27.19,20.492,40.951 c1.045,2.361,2.089,4.721,3.142,7.076l9.739-4.994c0.648-20.709,1.352-44.154-8.344-64.175c-0.12-0.249-0.017-0.547,0.232-0.668 c0.249-0.118,0.547-0.016,0.668,0.232c9.716,20.064,9.106,43.401,8.461,64.089l37.453-19.206c1.954-3.373,4.131-6.65,6.496-9.741 c1.286-1.681,2.831-3.567,4.894-4.686c2.103-1.14,4.47-1.391,7.122-1.583l0.462-0.033c3.516-0.251,7.15-0.511,10.435-1.767 l0.153-0.059c0.63-0.243,1.35-0.514,2.104-0.415c0.721,0.099,1.343,0.536,1.75,1.23c0.483,0.823,0.576,1.863,0.243,2.715 c-0.504,1.288-1.79,2.294-3.528,2.76c-0.811,0.217-1.639,0.315-2.44,0.41c-0.57,0.067-1.16,0.137-1.722,0.249 c-0.799,0.159-1.798,0.474-2.549,1.098c6.256-0.226,12.56-0.367,18.8-0.374c1.461,0.003,3.234-0.004,4.766,0.766 c0.851,0.428,1.793,1.331,1.652,2.468c-0.044,0.362-0.182,0.682-0.406,0.957c0.707,0.042,1.426,0.175,2.091,0.499 c0.812,0.396,1.469,1.132,1.757,1.97c0.229,0.67,0.2,1.331-0.084,1.911c-0.188,0.381-0.451,0.679-0.767,0.913 c0.083,0.035,0.164,0.073,0.245,0.115C188.319,135.688,188.846,136.339,189.038,137.046z M188.073,137.308 c-0.12-0.439-0.461-0.861-0.871-1.073c-0.422-0.219-0.889-0.307-1.41-0.328c-0.482,0.102-0.979,0.152-1.443,0.182l-16.315,1.049 c-0.27,0.018-0.512-0.19-0.531-0.465c-0.019-0.275,0.188-0.513,0.463-0.533l16.389-1.187c0.422-0.031,0.886-0.065,1.366-0.051 c0.698-0.164,1.291-0.461,1.566-1.023c0.209-0.426,0.136-0.858,0.036-1.146c-0.2-0.583-0.679-1.118-1.248-1.396 c-1.084-0.527-2.418-0.431-3.592-0.348l-0.435,0.031c-0.181,0.025-0.37,0.045-0.567,0.059l-14.253,1.005 c-0.249,0.016-0.514-0.187-0.534-0.463c-0.02-0.275,0.188-0.515,0.463-0.534l14.769-1.061c0.771-0.112,1.816-0.405,1.91-1.167 c0.071-0.582-0.506-1.149-1.109-1.453c-1.318-0.663-2.91-0.653-4.314-0.659c-7.279,0.008-14.657,0.168-21.929,0.474 c-0.325,0.016-0.51-0.204-0.521-0.479c-0.011-0.276,0.203-0.509,0.479-0.521c0.591-0.025,1.19-0.034,1.783-0.057 c0.737-1.046,2.022-1.781,3.74-2.123c0.601-0.12,1.21-0.192,1.799-0.262c0.802-0.095,1.56-0.185,2.3-0.383 c0.676-0.181,2.307-0.754,2.855-2.158c0.221-0.564,0.152-1.289-0.174-1.844c-0.145-0.246-0.469-0.669-1.023-0.745 c-0.498-0.072-1.041,0.137-1.608,0.356l-0.156,0.06c-3.422,1.308-7.133,1.573-10.721,1.83l-0.461,0.033 c-2.535,0.183-4.791,0.419-6.718,1.464c-1.889,1.024-3.296,2.742-4.575,4.414c-2.358,3.083-4.53,6.352-6.475,9.717l6.372,13.078 c4.579-3.234,10.38-3.388,15.996-3.537l0.563-0.015c7.325-0.199,14.714-0.832,21.959-1.88c0.93-0.135,2.506-0.516,2.615-1.556 c0.066-0.633-0.509-1.219-1.084-1.448c-0.713-0.285-1.577-0.24-2.345-0.201l-3.521,0.182c-3.115,0.246-6.244,0.407-9.351,0.482 c-0.266,0.016-0.501-0.208-0.512-0.481c-0.01-0.273,0.201-0.504,0.475-0.519l9.322-0.481c1.903-0.15,3.802-0.332,5.688-0.545 c1.455-0.164,2.756-0.342,3.932-0.866c0.452-0.202,0.72-0.398,0.868-0.635C188.161,137.826,188.13,137.518,188.073,137.308z M268.919,124.906c0.797,0.232,1.6,0.848,1.728,1.805c0.147,1.092-0.619,2.105-2.156,2.853c-2.449,1.189-5.132,1.843-7.726,2.476 c-2.07,0.505-4.192,1.022-6.179,1.816l6.853-0.482c0.754-0.052,1.604-0.113,2.406,0.207c0.845,0.335,1.618,1.21,1.462,2.233 c-0.11,0.72-0.688,1.647-2.815,1.979c-5.005,0.782-10.069,1.09-15.066,0.906c-4.334,2.262-8.798,4.397-13.271,6.345 c-1.59,0.692-3.285,1.335-4.967,0.948c-0.359-0.083-0.696-0.209-1.021-0.331c-0.295-0.111-0.591-0.223-0.897-0.294 c-0.475-0.11-1.048-0.114-1.688,0.698c-0.096,0.121-0.24,0.19-0.393,0.19c-0.015,0-0.029,0-0.044-0.002 c-0.168-0.015-0.316-0.113-0.396-0.261l-7.678-14.267c-0.007-0.01-0.011-0.022-0.017-0.032l-0.045-0.084 c-0.131-0.243-0.04-0.546,0.203-0.677c0.129-0.068,0.272-0.073,0.398-0.029c2.36-0.562,4.565-1.948,6.076-3.843 c0.734-0.921,1.308-1.937,1.914-3.011c0.448-0.793,0.911-1.613,1.441-2.384c1.629-2.368,3.872-4.251,6.486-5.446 c2.007-0.918,4.178-1.402,6.277-1.87c1.833-0.409,3.728-0.832,5.471-1.54l0.553-0.232c0.912-0.388,1.855-0.79,2.898-0.82 c1.419-0.033,2.902,0.792,3.085,2.245c0.137,1.083-0.5,2.146-1.893,3.157c-1.245,0.903-2.613,1.647-4.04,2.245l15.648-3.248 c1.069-0.221,2.396-0.356,3.181,0.58c0.74,0.885,0.449,2.166-0.201,2.922c-0.599,0.697-1.432,1.062-2.305,1.405 c-3.716,1.46-7.562,2.699-11.435,3.681c-0.437,0.11-0.903,0.291-1.224,0.523l18.42-4.831c0.466-0.122,1.557-0.409,2.263,0.266 c0.375,0.358,0.55,0.928,0.48,1.564C270.578,123.458,269.817,124.305,268.919,124.906z M269.711,122.16 c0.035-0.321-0.031-0.595-0.177-0.734c-0.269-0.257-0.846-0.146-1.318-0.022l-19.435,5.098c-0.14,0.035-0.283,0.011-0.402-0.066 c-0.118-0.079-0.198-0.203-0.219-0.344c-0.154-1.036,0.728-1.902,2.359-2.316c3.831-0.972,7.639-2.197,11.315-3.642 c0.779-0.306,1.462-0.603,1.912-1.126c0.379-0.44,0.56-1.188,0.191-1.628c-0.442-0.529-1.413-0.408-2.21-0.242l-20.808,4.319 c-0.02,0.004-0.039-0.002-0.059,0c-0.031,0.193-0.012,0.418,0.022,0.663l0.022,0.163c0.412,3.177-1.528,6.451-4.515,7.614 c-0.255,0.102-0.547-0.026-0.647-0.284c-0.101-0.257,0.027-0.547,0.284-0.647c2.528-0.985,4.235-3.864,3.886-6.554l-0.021-0.153 c-0.054-0.381-0.114-0.812,0.035-1.25c0.358-1.043,1.573-1.31,2.299-1.469c2.541-0.557,4.997-1.659,7.103-3.188 c1.075-0.78,1.576-1.528,1.488-2.223c-0.106-0.851-1.146-1.411-2.064-1.37c-0.854,0.024-1.67,0.372-2.535,0.74 c-0.189,0.081-0.378,0.161-0.567,0.238c-1.82,0.74-3.757,1.171-5.63,1.589c-2.049,0.457-4.168,0.93-6.079,1.804 c-2.45,1.12-4.552,2.885-6.078,5.104c-0.506,0.734-0.958,1.535-1.395,2.309c-0.6,1.062-1.22,2.159-2.004,3.143 c-1.588,1.993-3.785,3.422-6.235,4.091l7.071,13.14c0.637-0.542,1.364-0.711,2.191-0.52c0.36,0.083,0.698,0.21,1.023,0.332 c0.296,0.11,0.59,0.222,0.896,0.293c1.388,0.321,2.845-0.239,4.343-0.891c4.491-1.957,8.974-4.102,13.323-6.375 c0.076-0.041,0.161-0.063,0.25-0.057c4.975,0.186,10.021-0.112,15.008-0.891c0.844-0.132,1.873-0.437,1.981-1.143 c0.073-0.483-0.37-0.965-0.843-1.152c-0.592-0.236-1.323-0.184-1.967-0.139l-9.47,0.666c-0.229,0.018-0.445-0.129-0.514-0.353 c-0.067-0.223,0.027-0.463,0.229-0.579c2.719-1.56,5.797-2.311,8.773-3.037c2.542-0.62,5.172-1.262,7.524-2.404 c0.521-0.253,1.722-0.937,1.604-1.82c-0.075-0.553-0.689-0.941-1.229-1.025c-0.683-0.107-1.438,0.105-2.105,0.292l-16.527,4.624 c-0.271,0.075-0.542-0.082-0.616-0.346c-0.074-0.266,0.08-0.542,0.346-0.616l16.125-4.558 C268.24,124.481,269.569,123.482,269.711,122.16z M172.968,443.492c-0.062,0.205-0.247,0.349-0.461,0.356l-63.737,2.26 c-0.006,0-0.012,0-0.018,0c-0.151,0-0.296-0.069-0.391-0.188c-0.247-0.309-0.467-0.584-0.355-0.852l-0.793-11.751 c-0.138-2.053,1.383-4.356,2.888-6.34c0.243-0.32,0.521-0.607,0.79-0.886c0.295-0.306,0.574-0.595,0.795-0.909 c0.37-0.529,0.481-1.112,0.348-1.318l-1.793,0.147c-0.014,0.001-0.027,0.002-0.041,0.002c-0.183,0-0.353-0.1-0.44-0.263 c-0.18-0.336-12.884-23.884-32.607-59.89L40.715,416.01c-0.082,0.118-0.211,0.194-0.354,0.211 c-0.019,0.002-0.038,0.003-0.056,0.003c-0.124,0-0.243-0.046-0.335-0.129l-1.51-1.366c-0.829,0.944-1.637,2.005-2.507,3.309 c1.129,3.948,2.309,8.018,4.272,11.679c1.546,2.884,4.292,6.742,8.592,8.75c1.593,0.744,3.347,1.203,5.043,1.647 c1.374,0.36,2.794,0.732,4.15,1.256c3.002,1.16,6.257,3.606,6.389,6.995c0.011,0.27-0.194,0.498-0.463,0.519 c-8.085,0.594-16.666,1.412-26.219,2.499c-0.095,0.087-0.212,0.138-0.333,0.138c-0.118,0-0.237-0.042-0.332-0.126 c-13.335-11.839-25.765-24.888-36.943-38.785c-0.154-0.192-0.146-0.468,0.02-0.649l1.149-1.266 c3.217-3.544,6.256-6.892,9.359-10.084c1.072-1.104,2.248-2.195,3.788-2.352c0.367-0.039,0.723-0.017,1.066,0.004 c0.222,0.014,0.444,0.031,0.665,0.022c1.032-0.023,2.041-0.497,2.732-1.262l-3.126-2.828c-0.182-0.165-0.218-0.438-0.084-0.644 l42.129-64.891c-3.32-6.022-6.747-12.228-10.267-18.592C11.67,245.231,31.099,200.218,31.3,199.771 c0.113-0.252,0.41-0.364,0.661-0.251c0.252,0.113,0.365,0.409,0.252,0.661c-0.198,0.443-19.41,45.032,16.204,109.404 c10.681,19.306,20.509,37.179,29.05,52.768c0.034,0.014,0.07,0.022,0.101,0.044c0.168,0.118,0.241,0.321,0.202,0.51 c18.733,34.196,31.194,57.265,32.715,60.082l24.287-1.985L81.764,238.474c-0.077-0.266,0.075-0.543,0.34-0.62 c0.266-0.08,0.542,0.075,0.62,0.341l20.411,70.284c20.065-70.165-0.08-110.873-0.288-111.279c-0.126-0.246-0.028-0.547,0.218-0.673 c0.246-0.123,0.546-0.029,0.673,0.217c0.211,0.412,20.84,42.015-0.072,113.518c-0.002,0.005-0.007,0.008-0.009,0.013 l32.246,111.037c0.042,0.145,0.017,0.3-0.068,0.423c-0.086,0.124-0.222,0.203-0.371,0.215l-0.883,0.072 c0.423,0.792,0.84,1.622,1.168,2.591c8.656,3.978,19.205,7.476,29.274,10.72l0.137,0.044c1.964,0.632,3.995,1.286,5.602,2.544 C172.641,439.392,173.527,441.632,172.968,443.492z M1.158,412.316c0.198,0.245,0.402,0.485,0.601,0.729 c-0.188-0.326-0.334-0.619-0.455-0.89L1.158,412.316z M76.617,362.883c-5.577-10.18-11.705-21.336-18.26-33.23L16.75,393.738 l21.955,19.863c0.02,0.014,0.043,0.02,0.062,0.037c0.017,0.016,0.025,0.037,0.039,0.054l1.415,1.28L76.617,362.883z M77.516,44.263 c-0.159,0.42-0.535,0.662-0.737,0.791c-1.316,0.843-2.808,1.437-4.434,1.794c0.604,5.073,1.078,10.034,0.491,14.901 c-0.351,2.909-1.331,5.758-2.818,8.386c0.053-0.005,0.105-0.018,0.159-0.006c0.177,0.041,0.317,0.175,0.367,0.35l3.699,13.022 c0.055,0.195-0.012,0.404-0.171,0.53c-0.09,0.071-0.2,0.107-0.31,0.107c-0.084,0-0.169-0.021-0.246-0.064l-10.018-5.649 l-9.377,13.109c-0.096,0.134-0.249,0.209-0.407,0.209c-0.057,0-0.114-0.01-0.169-0.029l-24.508-8.819 c-0.145-0.052-0.257-0.168-0.306-0.314c-0.048-0.146-0.026-0.307,0.06-0.435l5.749-8.578L33.39,61.797 c-0.301-0.266-0.532-0.586-0.724-0.865l-7.148-10.375c-1.592-2.311-3.238-4.7-4.577-7.236c-4.584-8.683-5.148-18.658-1.508-26.684 c1.18-2.602,3.33-5.972,6.872-7.252c1.705-0.616,3.519-0.67,5.273-0.723c0.633-0.019,1.267-0.038,1.894-0.083 c2.211-0.159,4.406-0.659,6.647-1.2c8.234-1.99,16.485-4.354,24.522-7.027c0.677-0.225,1.701-0.565,2.623-0.169 c0.394,0.169,0.703,0.443,0.979,0.714c2.373,2.332,3.63,5.704,3.363,9.021c-0.246,3.066-1.827,5.997-4.346,8.162l2.073,13.118 c0.349,2.203,0.744,4.7,2.021,6.662c1.188,1.825,3.019,3.088,5.113,4.433C77.723,43.098,77.664,43.873,77.516,44.263z M33.834,46.638c0.415,0.326,0.918,0.518,1.418,0.688c1.764,0.599,3.858,0.929,5.371-0.157c-1.234-3.285-2.153-6.688-2.74-10.148 c-1.743-0.78-3.561-0.926-4.676,0.185c-0.422,0.42-0.684,0.975-0.877,1.538c-0.728,2.121-0.556,4.535,0.466,6.532 C33.058,45.788,33.381,46.283,33.834,46.638z M62.395,78.25l-27.099-4.012L29.98,82.17l23.549,8.474L62.395,78.25z M65.185,75.267 c-0.053-0.137-0.052-0.292,0.026-0.428c0.553-0.96,1.119-1.943,1.274-2.932c-1.668,2.059-3.863,3.718-6.298,4.74 c-0.063,0.026-0.128,0.039-0.194,0.039c-0.146,0-0.287-0.063-0.384-0.18c-0.141-0.169-0.154-0.411-0.034-0.594 c0.771-1.172,1.086-2.641,0.901-4.034c-0.743,1.13-1.618,2.167-2.611,3.091c-0.116,0.107-0.275,0.153-0.43,0.126 c-0.155-0.028-0.288-0.128-0.358-0.269c-0.771-1.544-1.446-3.146-2.02-4.78c-0.14,1.057-0.21,2.124-0.209,3.188 c0,0.208-0.129,0.395-0.324,0.468c-0.193,0.076-0.415,0.019-0.552-0.138l-2.117-2.421c-2.483-2.843-5.049-5.78-7.722-8.724 l-8.828-0.051c-0.259-0.002-0.557-0.01-0.86-0.064l1.071,10.956l27.767,4.111L65.185,75.267z M54.531,67.657 c-0.028-0.082-0.061-0.162-0.089-0.244c-0.007,0.143-0.004,0.287-0.01,0.43C54.451,67.772,54.486,67.711,54.531,67.657z M69.301,55.087c0.447-0.642,0.449-1.562-0.264-2.565c-2.129-0.268-4.259-0.537-6.388-0.805c-0.169-0.021-0.349-0.041-0.501,0.036 c-0.262,0.131-0.321,0.478-0.306,0.771c0.058,1.154,0.764,2.221,1.728,2.857c0.964,0.636,2.157,0.868,3.31,0.8 C67.796,56.127,68.777,55.84,69.301,55.087z M66.886,69.797c-0.027,0.079-0.067,0.153-0.097,0.231 c0.044-0.011,0.088-0.018,0.133-0.016C66.908,69.941,66.904,69.868,66.886,69.797z M69.83,71.621l-5.525,6.11l8.645,4.875 L69.83,71.621z M76.581,43.909c0.065-0.171-0.198-0.483-0.653-0.776c-2.193-1.409-4.114-2.738-5.411-4.729 c-1.394-2.141-1.807-4.75-2.171-7.051l-2.003-12.676c-5.967,1.181-12.071,1.794-18.152,1.817c-1.59,4.555-3.482,8.495-5.773,12.025 c1.185,5.921,2.777,11.814,4.734,17.521c0.114,0.333,0.243,0.709,0.471,0.947c0.182,0.19,0.458,0.327,0.723,0.458 c1.753,0.871,3.56,1.768,5.573,2.576c0.346-2.679,1.377-5.167,2.939-7.063c1.766-2.145,4.211-3.537,6.77-3.897 c-0.06-0.429,0.04-0.893,0.304-1.281c0.284-0.417,0.721-0.741,1.298-0.96c0.651-0.247,1.586-0.291,2.077,0.402 c0.159,0.226,0.106,0.538-0.119,0.697c-0.225,0.159-0.537,0.107-0.697-0.119c-0.141-0.2-0.571-0.171-0.905-0.045 c-0.263,0.1-0.619,0.283-0.826,0.588c-0.165,0.243-0.204,0.547-0.096,0.757c0.162,0.315,0.638,0.453,1.008,0.513l0.309,0.045 c0.463,0.064,0.988,0.136,1.451,0.426c0.33,0.206,0.574,0.491,0.789,0.742c0.08,0.093,0.16,0.186,0.244,0.274 c0.647,0.681,1.595,1.05,2.531,0.989c1.943-0.266,3.719-0.898,5.245-1.875C76.344,44.146,76.539,44.021,76.581,43.909z" style="fill: inherit;"></path></g></g></svg>