<svg xmlns="http://www.w3.org/2000/svg" class="login-man-svg"
                        xmlns:xlink="http://www.w3.org/1999/xlink" preserveAspectRatio="xMidYMid meet" version="1.0"
                        viewBox="-0.0 -0.2 270.8 451.7" zoomAndPan="magnify" style="fill: rgb(23, 53, 84);" role="img"
                        aria-label="Lined Corporate Guy Presenting">
                        <g id="__id1288_szm29o5vo6">
                            <path
                                d="M270.705,122.268c0.069-0.636-0.105-1.207-0.48-1.564c-0.706-0.675-1.797-0.388-2.263-0.266 l-18.42,4.831c0.32-0.232,0.787-0.413,1.224-0.523c3.872-0.982,7.719-2.221,11.435-3.681c0.873-0.343,1.706-0.708,2.305-1.405 c0.65-0.756,0.941-2.037,0.201-2.922c-0.784-0.936-2.111-0.801-3.181-0.58l-15.648,3.248c1.428-0.598,2.795-1.342,4.04-2.245 c1.393-1.011,2.029-2.074,1.893-3.157c-0.183-1.454-1.666-2.278-3.085-2.245c-1.043,0.03-1.986,0.432-2.898,0.82l-0.553,0.232 c-1.743,0.708-3.638,1.131-5.471,1.54c-2.1,0.468-4.271,0.952-6.277,1.87c-2.614,1.195-4.857,3.078-6.486,5.446 c-0.53,0.771-0.993,1.591-1.441,2.384c-0.606,1.075-1.18,2.09-1.914,3.011c-1.511,1.895-3.716,3.282-6.076,3.843 c-0.038-0.013-0.078-0.012-0.118-0.016l-0.458-0.869c0,0-23.49,7.58-28.851,9.275c0.243-0.167,0.475-0.377,0.649-0.655 c0.288-0.457,0.361-1.022,0.207-1.592c-0.192-0.707-0.719-1.358-1.375-1.699c-0.081-0.042-0.162-0.08-0.245-0.115 c0.315-0.234,0.579-0.532,0.767-0.913c0.284-0.581,0.313-1.241,0.084-1.911c-0.288-0.838-0.944-1.575-1.757-1.97 c-0.665-0.323-1.384-0.457-2.091-0.499c0.225-0.275,0.362-0.595,0.406-0.957c0.141-1.137-0.802-2.041-1.652-2.468 c-1.531-0.77-3.305-0.762-4.766-0.766c-6.241,0.007-12.544,0.148-18.8,0.374c0.752-0.624,1.75-0.939,2.549-1.098 c0.562-0.112,1.151-0.182,1.722-0.249c0.802-0.095,1.63-0.193,2.44-0.41c1.738-0.466,3.024-1.472,3.528-2.76 c0.333-0.852,0.24-1.892-0.243-2.715c-0.407-0.694-1.029-1.131-1.75-1.23c-0.755-0.099-1.475,0.171-2.104,0.415l-0.153,0.059 c-3.284,1.255-6.919,1.515-10.435,1.767l-0.462,0.033c-2.652,0.191-5.02,0.442-7.122,1.583c-2.062,1.118-3.607,3.005-4.894,4.686 c-1.281,1.675-2.502,3.407-3.667,5.177c-15.104-13.382-30.208-26.764-45.312-40.146c-6.781-6.008-13.678-12.07-21.809-15.998 l-1.351-4.757c-0.05-0.175-0.19-0.309-0.367-0.35c-0.054-0.012-0.106,0.001-0.159,0.006c1.487-2.628,2.467-5.476,2.818-8.386 c0.586-4.867,0.112-9.828-0.491-14.901c1.626-0.357,3.117-0.951,4.434-1.794c0.202-0.129,0.578-0.371,0.737-0.791 c0.147-0.39,0.207-1.165-1.048-1.972c-2.095-1.345-3.925-2.608-5.113-4.433c-1.277-1.962-1.673-4.458-2.021-6.662L67.26,18.079 c2.519-2.164,4.1-5.096,4.346-8.162c0.267-3.316-0.991-6.688-3.363-9.021c-0.275-0.271-0.585-0.545-0.979-0.714 c-0.922-0.396-1.946-0.055-2.623,0.169c-8.038,2.672-16.288,5.037-24.522,7.027c-2.241,0.542-4.436,1.041-6.647,1.2 c-0.627,0.045-1.261,0.064-1.894,0.083c-1.755,0.053-3.569,0.107-5.273,0.723c-3.542,1.28-5.691,4.65-6.872,7.252 c-3.64,8.025-3.076,18.001,1.508,26.684c1.339,2.536,2.985,4.926,4.577,7.236l7.148,10.375c0.192,0.279,0.422,0.599,0.724,0.865 l1.151,11.771l-5.749,8.578c-0.085,0.128-0.107,0.288-0.06,0.435c0.025,0.076,0.07,0.143,0.126,0.198 c-7.379,6.575-14.538,14.075-16.871,23.629c-2.388,9.776,0.687,19.961,3.666,29.573c6.422,20.722,12.532,41.613,15.857,63.15 c-0.058,0.193-0.11,0.387-0.167,0.58c-0.014,0.021-0.033,0.037-0.043,0.06c-0.193,0.43-18.148,42.053,12.338,102.879 c0.182,0.369,0.369,0.736,0.553,1.104c0.074,0.145,0.146,0.289,0.221,0.435c1.913,3.805,3.947,7.551,6.091,11.234 c2.487,4.5,4.925,8.918,7.307,13.238l-42.129,64.891c-0.134,0.206-0.098,0.479,0.084,0.644l3.126,2.828 c-0.692,0.766-1.7,1.24-2.732,1.262c-0.221,0.009-0.443-0.009-0.665-0.022c-0.344-0.021-0.7-0.043-1.066-0.004 c-1.54,0.156-2.715,1.247-3.788,2.352c-3.103,3.192-6.142,6.54-9.359,10.084L0.13,411.96c-0.166,0.182-0.174,0.457-0.02,0.649 c11.178,13.897,23.608,26.946,36.943,38.785c0.095,0.084,0.214,0.126,0.332,0.126c0.121,0,0.238-0.051,0.333-0.138 c9.553-1.086,18.134-1.904,26.219-2.499c0.269-0.021,0.474-0.249,0.463-0.519c-0.132-3.389-3.387-5.835-6.389-6.995 c-1.356-0.523-2.776-0.896-4.15-1.256c-1.696-0.444-3.451-0.903-5.043-1.647c-4.299-2.008-7.045-5.866-8.592-8.75 c-1.963-3.661-3.144-7.73-4.272-11.679c0.87-1.304,1.678-2.365,2.507-3.309l1.51,1.366c0.092,0.083,0.212,0.129,0.335,0.129 c0.019,0,0.038-0.001,0.056-0.003c0.143-0.017,0.271-0.093,0.354-0.211l36.437-52.148c19.722,36.006,32.426,59.554,32.607,59.89 c0.088,0.163,0.258,0.263,0.44,0.263c0.014,0,0.027-0.001,0.041-0.002l1.793-0.147c0.133,0.206,0.022,0.789-0.348,1.318 c-0.221,0.314-0.5,0.604-0.795,0.909c-0.269,0.278-0.547,0.565-0.79,0.886c-1.505,1.983-3.025,4.287-2.888,6.34l0.793,11.751 c-0.111,0.268,0.108,0.543,0.355,0.852c0.095,0.119,0.239,0.188,0.391,0.188c0.006,0,0.012,0,0.018,0l63.737-2.26 c0.214-0.008,0.399-0.151,0.461-0.356c0.56-1.86-0.327-4.101-2.206-5.572c-1.606-1.258-3.638-1.912-5.602-2.544l-0.137-0.044 c-10.069-3.244-20.618-6.742-29.274-10.72c-0.328-0.969-0.745-1.799-1.168-2.591l0.883-0.072c0.149-0.012,0.285-0.091,0.371-0.215 c0.085-0.123,0.11-0.278,0.068-0.423l-32.246-111.037c0.002-0.005,0.007-0.008,0.009-0.013 c20.912-71.503,0.283-113.105,0.072-113.518c-0.081-0.156-0.232-0.242-0.394-0.259l-1.678-7.712l0.26-0.148 c0.236-0.135,0.318-0.433,0.19-0.671c4.336-2.962,33.928-23.183,33.899-23.336c11.152,6.044,23.192,12.277,35.807,10.954 c8.314-0.872,15.896-4.966,23.229-8.979l32.225-17.134l-1.76-3.341c0.021-0.019,0.047-0.029,0.065-0.052 c0.641-0.812,1.214-0.808,1.688-0.698c0.307,0.071,0.603,0.183,0.897,0.294c0.325,0.122,0.662,0.248,1.021,0.331 c1.682,0.387,3.377-0.256,4.967-0.948c4.473-1.948,8.937-4.083,13.271-6.345c4.997,0.184,10.062-0.125,15.066-0.906 c2.127-0.333,2.705-1.26,2.815-1.979c0.156-1.023-0.617-1.898-1.462-2.233c-0.803-0.319-1.652-0.259-2.406-0.207l-6.853,0.482 c1.986-0.794,4.108-1.312,6.179-1.816c2.594-0.633,5.276-1.287,7.726-2.476c1.537-0.747,2.304-1.76,2.156-2.853 c-0.128-0.958-0.931-1.573-1.728-1.805C269.817,124.305,270.578,123.458,270.705,122.268z M1.158,412.316l0.146-0.161 c0.12,0.271,0.266,0.564,0.455,0.89C1.56,412.8,1.355,412.56,1.158,412.316z M54.442,67.413c0.028,0.082,0.06,0.163,0.089,0.244 c-0.045,0.054-0.08,0.115-0.099,0.186C54.438,67.699,54.435,67.556,54.442,67.413z M66.79,70.029 c0.029-0.078,0.07-0.152,0.097-0.231c0.018,0.071,0.021,0.144,0.037,0.215C66.877,70.01,66.833,70.018,66.79,70.029z M58.356,329.654c0.034,0.062,0.068,0.123,0.102,0.185l-10.821,16.326L58.356,329.654z"
                                style="fill: rgb(23, 53, 84);"></path>
                        </g>
                        <g>
                            <g id="__id1289_szm29o5vo6">
                                <path
                                    d="M66.573,18.213c-6.015,1.318-12.207,1.824-18.607,1.771c-1.381,3.854-3.171,7.562-5.331,11.04 c-0.342,0.551-0.702,1.12-0.776,1.764c-0.059,0.516,0.072,1.034,0.203,1.537c1.374,5.267,2.884,10.498,4.527,15.688 c0.135,0.426,0.277,0.864,0.561,1.21c0.34,0.415,0.846,0.653,1.334,0.874c1.986,0.901,3.991,1.762,6.012,2.583 c0.521-2.649,1.223-5.356,2.872-7.494c1.09-1.413,2.57-2.523,4.233-3.172c1.582-0.617,3.462-0.79,4.913,0.092 c0.564,0.342,1.03,0.823,1.557,1.22c2.831,2.133,7.441,1.217,9.241-1.837c-2.094-1.227-4.243-2.504-5.707-4.44 c-1.634-2.162-2.237-4.909-2.784-7.563C68.157,28.27,67.515,25.05,66.573,18.213z M35.109,73.876 c-0.19-0.071,28.035,3.82,28.035,3.82c2.567-1.471,4.086-4.584,3.664-7.513c-1.352,2.829-3.762,5.137-6.648,6.364 c0.986-1.805,1.096-4.064,0.29-5.956c-0.506,1.507-1.423,2.874-2.627,3.912c-1.319-2.291-2.412-4.711-3.258-7.214 c-0.149,1.983-0.298,3.966-0.447,5.948c-2.742-3.349-5.619-6.585-8.624-9.7c-0.461-0.478-0.942-0.965-1.55-1.232 c-0.597-0.262-1.266-0.292-1.918-0.317c-2.676-0.103-5.351-0.207-8.027-0.31C34.696,66.673,35.053,70.272,35.109,73.876z M142.984,150.403c3.389-1.75,6.995-3.549,10.801-3.306c0.054-0.054,12.433-0.584,12.433-0.584l11.26-0.56 c1.165-0.513,2.472-0.56,3.729-0.765c1.256-0.205,2.577-0.638,3.326-1.667c0.75-1.029,0.569-2.776-0.609-3.26 c1.195-0.251,2.36-0.641,3.465-1.16c0.444-0.208,0.905-0.463,1.132-0.898c0.335-0.641,0.022-1.467-0.524-1.942 c-0.546-0.475-1.269-0.681-1.966-0.874c1.37-0.322,1.89-2.22,1.184-3.438c-0.706-1.218-2.205-1.773-3.612-1.816 c1.036-0.848,0.512-2.68-0.637-3.368c-1.149-0.688-2.588-0.577-3.921-0.444c0.112-0.012-20.027-0.115-20.027-0.115 c1.016-1.294,2.782-1.695,4.414-1.905s3.374-0.352,4.686-1.345s1.834-3.214,0.551-4.245c-1.238-0.995-3.033-0.247-4.532,0.276 c-5.731,1.999-12.73,0.153-17.601,3.774c-1.676,1.246-2.879,3.01-4.05,4.74c-2.123,3.137-4.245,6.273-6.368,9.41L142.984,150.403z M217.706,131.331c0,0,7.706,14.273,7.747,14.41c0.559-0.716,1.592-0.875,2.491-0.743c0.899,0.132,1.753,0.494,2.655,0.604 c1.943,0.239,3.817-0.699,5.55-1.609c3.686-1.936,7.373-3.872,10.808-5.711c5.332,0.085,10.672-0.347,15.921-1.288 c0.81-0.145,1.77-0.437,1.978-1.233c0.246-0.943-0.795-1.732-1.747-1.942c-1.02-0.225-2.08-0.139-3.121-0.053 c-2.51,0.208-5.02,0.417-7.599,0.589c5.025-2.538,10.939-2.836,16.001-5.3c0.526-0.256,1.059-0.55,1.401-1.025 c0.408-0.566,0.475-1.359,0.17-1.987c-0.305-0.627-0.971-1.063-1.578-1.023c0.575-0.416,1.136-0.887,1.472-1.512 c0.335-0.625,0.402-1.438,0.001-2.024c-0.352-0.514-0.997-0.764-1.619-0.789c-0.622-0.025-1.235,0.141-1.835,0.307 c-2.955,0.815-5.909,1.629-8.864,2.444c-2.727,0.752-5.455,1.504-8.212,2.388c-0.075-0.559,0.48-0.983,0.98-1.242 c4.198-2.176,9.451-2.131,13.172-5.048c0.514-0.403,1.024-0.932,1.035-1.585c0.014-0.817-0.802-1.453-1.615-1.54 c-0.812-0.086-1.608,0.229-2.364,0.538c0,0-11.296,2.608-11.263,2.555c-2.152,0.097-4.299,0.306-6.43,0.628 c2.215-0.65,4.318-1.681,6.188-3.034c1.021-0.738,2.039-1.688,2.204-2.937c0.077-0.582-0.077-1.236-0.546-1.59 c-0.434-0.329-1.027-0.333-1.57-0.289c-1.433,0.116-2.847,0.47-4.376,0.836c-2.323,0.775-4.645,1.55-6.968,2.326 c-2.908,0.971-5.916,2-8.144,4.106c-2.01,1.901-3.186,4.493-4.702,6.806C223.412,128.679,221.271,130.885,217.706,131.331z M33.207,37.206c-0.422,0.42-0.684,0.975-0.877,1.538c-0.728,2.121-0.556,4.535,0.466,6.532c0.262,0.512,0.586,1.007,1.039,1.362 c0.415,0.326,0.918,0.518,1.418,0.688c1.764,0.599,3.858,0.929,5.371-0.157c-1.234-3.285-2.153-6.688-2.74-10.148 C36.14,36.242,34.322,36.095,33.207,37.206z"
                                    style="fill: rgb(244, 244, 244);"></path>
                            </g>
                            <g id="__id1290_szm29o5vo6">
                                <path
                                    d="M45.573,196.211c10.05-0.402,20.1-0.804,30.15-1.189c5.679-0.218,11.367-0.43,17.041-0.117 c3.585,0.198,7.249,0.632,10.45,2.256c4.143,9.05,6.83,18.777,8.006,28.685c1.402,12.474,1.671,25.408,0.91,38.281 c-1.246,14.857-4.008,29.699-8.206,44.123c-0.398,0.588-0.465,1.151-0.531,1.714c-0.077,0.046,31.763,111.382,31.763,111.382 l-24.915,2.196L77.16,362.933l-36.795,52.789l-24.273-21.969l42.94-64.781c-12.919-19.027-23.24-40.014-28.571-62.386 s-5.528-46.192,1.254-68.169C37.687,196.53,41.647,196.368,45.573,196.211z M69.037,52.522c-2.129-0.268-4.259-0.537-6.388-0.805 c-0.169-0.021-0.349-0.041-0.501,0.035c-0.262,0.131-0.321,0.478-0.306,0.771c0.058,1.154,0.764,2.221,1.728,2.857 s2.157,0.868,3.31,0.8c0.915-0.054,1.897-0.341,2.42-1.093C69.748,54.445,69.75,53.525,69.037,52.522z"
                                    style="fill: rgb(255, 255, 255);"></path>
                            </g>
                            <g id="__id1291_szm29o5vo6">
                                <path
                                    d="M63.3,77.856l-27.751-4.573c0,0-6.132,8.731-5.638,8.561c-7.742,6.798-15.48,14.555-17.925,24.563 c-2.388,9.776,0.687,19.961,3.666,29.573c6.524,21.052,12.733,42.276,16.02,64.178c-0.036,0.036-0.073,0.073-0.109,0.109 c0.036,0,0.073,0,0.109,0c0,0,19.853-1.057,21.109,0.308c4.7,2.871,10.302,4.832,15.597,3.616c5.822-1.07,11.443-3.22,16.492-6.309 l18.654-0.561l-1.957-8.993c0,0,34.477-23.544,34.446-23.709c11.152,6.044,23.192,12.277,35.807,10.954 c8.314-0.872,15.896-4.966,23.229-8.979l32.225-17.134l-10.243-19.441c0,0-30.029,9.689-29.945,9.612 c-1.303,0.223-2.607,0.446-3.91,0.67c0.929,0.207,1.732,0.993,1.851,1.937c0.119,0.944-0.537,1.955-1.472,2.133l-24.27,2.359 l-10.224,0.856l-6.187,2.851l-6.243-13.716c0,0,2.668-5.013,2.519-5.222c-15.148-13.421-30.297-26.842-45.445-40.264 C86.738,85.06,79.658,78.81,71.23,74.898l-1.069-4.426L63.3,77.856z"
                                    style="fill: rgb(23, 53, 84);"></path>
                            </g>
                            <g id="__id1292_szm29o5vo6">
                                <path
                                    d="M65.265,25.966c0.184,0.206,0.166,0.522-0.04,0.706c-0.207,0.183-0.521,0.166-0.706-0.04 c-1.232-1.381-3.474-1.866-5.332-1.154c-1.761,0.677-3.184,2.342-3.713,4.345c-0.059,0.225-0.262,0.373-0.483,0.373 c-0.042,0-0.085-0.005-0.128-0.017c-0.267-0.07-0.426-0.344-0.356-0.611c0.609-2.309,2.265-4.234,4.321-5.024 C61.095,23.673,63.741,24.259,65.265,25.966z M55.242,35.28c-0.143-0.236-0.451-0.31-0.687-0.168 c-1.231,0.747-2.52,1.422-3.831,2.007c-0.252,0.113-0.366,0.408-0.253,0.66c0.083,0.186,0.266,0.296,0.457,0.296 c0.068,0,0.137-0.014,0.203-0.043c1.35-0.603,2.676-1.297,3.942-2.065C55.309,35.823,55.385,35.516,55.242,35.28z M56.127,37.593 c-0.675,0.864-1.235,1.814-1.663,2.823c-0.108,0.254,0.011,0.548,0.265,0.656c0.064,0.027,0.13,0.04,0.195,0.04 c0.194,0,0.379-0.114,0.46-0.305c0.394-0.929,0.909-1.803,1.53-2.599c0.17-0.217,0.131-0.532-0.086-0.702 C56.61,37.336,56.296,37.375,56.127,37.593z M62.922,32.914c-0.725,0-1.312,0.588-1.312,1.312c0,0.725,0.588,1.312,1.312,1.312 c0.725,0,1.312-0.588,1.312-1.312C64.234,33.502,63.647,32.914,62.922,32.914z M58.774,203.988c1.87,0.553,3.891,0.83,6.013,0.83 c2.442,0,5.018-0.366,7.648-1.096c4.515-1.253,8.664-3.358,12.542-5.415l16.949-9.682c0.239-0.137,0.323-0.442,0.187-0.682 c-0.139-0.242-0.447-0.323-0.683-0.186l-16.936,9.674c-3.814,2.023-7.909,4.101-12.327,5.327 c-4.736,1.314-9.269,1.409-13.109,0.271c-4.969-1.471-9.212-5.168-11.349-9.889c-0.025-0.056-0.06-0.106-0.102-0.147 c-0.988-1.41-18.399-33.308-27.524-50.082c-0.132-0.243-0.437-0.331-0.678-0.201c-0.243,0.132-0.333,0.436-0.201,0.678 c0,0,6.832,12.558,13.699,25.111c10.585,19.349,13.123,23.957,13.945,25.03l-0.049,0.022 C49.054,198.534,53.53,202.435,58.774,203.988z M189.038,137.046c0.154,0.569,0.081,1.135-0.207,1.592 c-0.333,0.531-0.874,0.822-1.308,1.016c-1.025,0.457-2.096,0.673-3.253,0.829c0.74,0.47,1.334,1.299,1.235,2.239 c-0.094,0.898-0.771,2.051-3.467,2.441c-7.283,1.054-14.71,1.69-22.074,1.891l-0.564,0.015c-5.62,0.149-11.431,0.303-15.812,3.623 c-0.094,0.1-0.222,0.169-0.353,0.173c-0.006,0-0.012,0-0.019,0c-0.189,0-0.375-0.076-0.458-0.247l-6.484-13.308 c-0.007,0-0.012,0.005-0.019,0.005c-0.084,0-0.169-0.021-0.247-0.065c-0.025-0.014-0.042-0.037-0.063-0.055l-47.978,24.603 c-0.071,0.037-0.15,0.055-0.229,0.055c-0.056,0-0.112-0.009-0.166-0.028c-0.129-0.045-0.234-0.142-0.29-0.267 c-1.127-2.516-2.243-5.038-3.359-7.562c-6.073-13.729-12.354-27.924-20.425-40.825c-2.52-4.028-5.351-8.232-8.972-11.687 c-3.903-3.725-8.284-6.079-12.668-6.809c-0.272-0.045-0.457-0.303-0.411-0.575c0.045-0.273,0.3-0.461,0.575-0.411 c4.583,0.763,9.146,3.208,13.195,7.072c3.7,3.531,6.574,7.796,9.129,11.88c8.11,12.961,14.404,27.19,20.492,40.951 c1.045,2.361,2.089,4.721,3.142,7.076l9.739-4.994c0.648-20.709,1.352-44.154-8.344-64.175c-0.12-0.249-0.017-0.547,0.232-0.668 c0.249-0.118,0.547-0.016,0.668,0.232c9.716,20.064,9.106,43.401,8.461,64.089l37.453-19.206c1.954-3.373,4.131-6.65,6.496-9.741 c1.286-1.681,2.831-3.567,4.894-4.686c2.103-1.14,4.47-1.391,7.122-1.583l0.462-0.033c3.516-0.251,7.15-0.511,10.435-1.767 l0.153-0.059c0.63-0.243,1.35-0.514,2.104-0.415c0.721,0.099,1.343,0.536,1.75,1.23c0.483,0.823,0.576,1.863,0.243,2.715 c-0.504,1.288-1.79,2.294-3.528,2.76c-0.811,0.217-1.639,0.315-2.44,0.41c-0.57,0.067-1.16,0.137-1.722,0.249 c-0.799,0.159-1.798,0.474-2.549,1.098c6.256-0.226,12.56-0.367,18.8-0.374c1.461,0.003,3.234-0.004,4.766,0.766 c0.851,0.428,1.793,1.331,1.652,2.468c-0.044,0.362-0.182,0.682-0.406,0.957c0.707,0.042,1.426,0.175,2.091,0.499 c0.812,0.396,1.469,1.132,1.757,1.97c0.229,0.67,0.2,1.331-0.084,1.911c-0.188,0.381-0.451,0.679-0.767,0.913 c0.083,0.035,0.164,0.073,0.245,0.115C188.319,135.688,188.846,136.339,189.038,137.046z M188.073,137.308 c-0.12-0.439-0.461-0.861-0.871-1.073c-0.422-0.219-0.889-0.307-1.41-0.328c-0.482,0.102-0.979,0.152-1.443,0.182l-16.315,1.049 c-0.27,0.018-0.512-0.19-0.531-0.465c-0.019-0.275,0.188-0.513,0.463-0.533l16.389-1.187c0.422-0.031,0.886-0.065,1.366-0.051 c0.698-0.164,1.291-0.461,1.566-1.023c0.209-0.426,0.136-0.858,0.036-1.146c-0.2-0.583-0.679-1.118-1.248-1.396 c-1.084-0.527-2.418-0.431-3.592-0.348l-0.435,0.031c-0.181,0.025-0.37,0.045-0.567,0.059l-14.253,1.005 c-0.249,0.016-0.514-0.187-0.534-0.463c-0.02-0.275,0.188-0.515,0.463-0.534l14.769-1.061c0.771-0.112,1.816-0.405,1.91-1.167 c0.071-0.582-0.506-1.149-1.109-1.453c-1.318-0.663-2.91-0.653-4.314-0.659c-7.279,0.008-14.657,0.168-21.929,0.474 c-0.325,0.016-0.51-0.204-0.521-0.479c-0.011-0.276,0.203-0.509,0.479-0.521c0.591-0.025,1.19-0.034,1.783-0.057 c0.737-1.046,2.022-1.781,3.74-2.123c0.601-0.12,1.21-0.192,1.799-0.262c0.802-0.095,1.56-0.185,2.3-0.383 c0.676-0.181,2.307-0.754,2.855-2.158c0.221-0.564,0.152-1.289-0.174-1.844c-0.145-0.246-0.469-0.669-1.023-0.745 c-0.498-0.072-1.041,0.137-1.608,0.356l-0.156,0.06c-3.422,1.308-7.133,1.573-10.721,1.83l-0.461,0.033 c-2.535,0.183-4.791,0.419-6.718,1.464c-1.889,1.024-3.296,2.742-4.575,4.414c-2.358,3.083-4.53,6.352-6.475,9.717l6.372,13.078 c4.579-3.234,10.38-3.388,15.996-3.537l0.563-0.015c7.325-0.199,14.714-0.832,21.959-1.88c0.93-0.135,2.506-0.516,2.615-1.556 c0.066-0.633-0.509-1.219-1.084-1.448c-0.713-0.285-1.577-0.24-2.345-0.201l-3.521,0.182c-3.115,0.246-6.244,0.407-9.351,0.482 c-0.266,0.016-0.501-0.208-0.512-0.481c-0.01-0.273,0.201-0.504,0.475-0.519l9.322-0.481c1.903-0.15,3.802-0.332,5.688-0.545 c1.455-0.164,2.756-0.342,3.932-0.866c0.452-0.202,0.72-0.398,0.868-0.635C188.161,137.826,188.13,137.518,188.073,137.308z M268.919,124.906c0.797,0.232,1.6,0.848,1.728,1.805c0.147,1.092-0.619,2.105-2.156,2.853c-2.449,1.189-5.132,1.843-7.726,2.476 c-2.07,0.505-4.192,1.022-6.179,1.816l6.853-0.482c0.754-0.052,1.604-0.113,2.406,0.207c0.845,0.335,1.618,1.21,1.462,2.233 c-0.11,0.72-0.688,1.647-2.815,1.979c-5.005,0.782-10.069,1.09-15.066,0.906c-4.334,2.262-8.798,4.397-13.271,6.345 c-1.59,0.692-3.285,1.335-4.967,0.948c-0.359-0.083-0.696-0.209-1.021-0.331c-0.295-0.111-0.591-0.223-0.897-0.294 c-0.475-0.11-1.048-0.114-1.688,0.698c-0.096,0.121-0.24,0.19-0.393,0.19c-0.015,0-0.029,0-0.044-0.002 c-0.168-0.015-0.316-0.113-0.396-0.261l-7.678-14.267c-0.007-0.01-0.011-0.022-0.017-0.032l-0.045-0.084 c-0.131-0.243-0.04-0.546,0.203-0.677c0.129-0.068,0.272-0.073,0.398-0.029c2.36-0.562,4.565-1.948,6.076-3.843 c0.734-0.921,1.308-1.937,1.914-3.011c0.448-0.793,0.911-1.613,1.441-2.384c1.629-2.368,3.872-4.251,6.486-5.446 c2.007-0.918,4.178-1.402,6.277-1.87c1.833-0.409,3.728-0.832,5.471-1.54l0.553-0.232c0.912-0.388,1.855-0.79,2.898-0.82 c1.419-0.033,2.902,0.792,3.085,2.245c0.137,1.083-0.5,2.146-1.893,3.157c-1.245,0.903-2.613,1.647-4.04,2.245l15.648-3.248 c1.069-0.221,2.396-0.356,3.181,0.58c0.74,0.885,0.449,2.166-0.201,2.922c-0.599,0.697-1.432,1.062-2.305,1.405 c-3.716,1.46-7.562,2.699-11.435,3.681c-0.437,0.11-0.903,0.291-1.224,0.523l18.42-4.831c0.466-0.122,1.557-0.409,2.263,0.266 c0.375,0.358,0.55,0.928,0.48,1.564C270.578,123.458,269.817,124.305,268.919,124.906z M269.711,122.16 c0.035-0.321-0.031-0.595-0.177-0.734c-0.269-0.257-0.846-0.146-1.318-0.022l-19.435,5.098c-0.14,0.035-0.283,0.011-0.402-0.066 c-0.118-0.079-0.198-0.203-0.219-0.344c-0.154-1.036,0.728-1.902,2.359-2.316c3.831-0.972,7.639-2.197,11.315-3.642 c0.779-0.306,1.462-0.603,1.912-1.126c0.379-0.44,0.56-1.188,0.191-1.628c-0.442-0.529-1.413-0.408-2.21-0.242l-20.808,4.319 c-0.02,0.004-0.039-0.002-0.059,0c-0.031,0.193-0.012,0.418,0.022,0.663l0.022,0.163c0.412,3.177-1.528,6.451-4.515,7.614 c-0.255,0.102-0.547-0.026-0.647-0.284c-0.101-0.257,0.027-0.547,0.284-0.647c2.528-0.985,4.235-3.864,3.886-6.554l-0.021-0.153 c-0.054-0.381-0.114-0.812,0.035-1.25c0.358-1.043,1.573-1.31,2.299-1.469c2.541-0.557,4.997-1.659,7.103-3.188 c1.075-0.78,1.576-1.528,1.488-2.223c-0.106-0.851-1.146-1.411-2.064-1.37c-0.854,0.024-1.67,0.372-2.535,0.74 c-0.189,0.081-0.378,0.161-0.567,0.238c-1.82,0.74-3.757,1.171-5.63,1.589c-2.049,0.457-4.168,0.93-6.079,1.804 c-2.45,1.12-4.552,2.885-6.078,5.104c-0.506,0.734-0.958,1.535-1.395,2.309c-0.6,1.062-1.22,2.159-2.004,3.143 c-1.588,1.993-3.785,3.422-6.235,4.091l7.071,13.14c0.637-0.542,1.364-0.711,2.191-0.52c0.36,0.083,0.698,0.21,1.023,0.332 c0.296,0.11,0.59,0.222,0.896,0.293c1.388,0.321,2.845-0.239,4.343-0.891c4.491-1.957,8.974-4.102,13.323-6.375 c0.076-0.041,0.161-0.063,0.25-0.057c4.975,0.186,10.021-0.112,15.008-0.891c0.844-0.132,1.873-0.437,1.981-1.143 c0.073-0.483-0.37-0.965-0.843-1.152c-0.592-0.236-1.323-0.184-1.967-0.139l-9.47,0.666c-0.229,0.018-0.445-0.129-0.514-0.353 c-0.067-0.223,0.027-0.463,0.229-0.579c2.719-1.56,5.797-2.311,8.773-3.037c2.542-0.62,5.172-1.262,7.524-2.404 c0.521-0.253,1.722-0.937,1.604-1.82c-0.075-0.553-0.689-0.941-1.229-1.025c-0.683-0.107-1.438,0.105-2.105,0.292l-16.527,4.624 c-0.271,0.075-0.542-0.082-0.616-0.346c-0.074-0.266,0.08-0.542,0.346-0.616l16.125-4.558 C268.24,124.481,269.569,123.482,269.711,122.16z M172.968,443.492c-0.062,0.205-0.247,0.349-0.461,0.356l-63.737,2.26 c-0.006,0-0.012,0-0.018,0c-0.151,0-0.296-0.069-0.391-0.188c-0.247-0.309-0.467-0.584-0.355-0.852l-0.793-11.751 c-0.138-2.053,1.383-4.356,2.888-6.34c0.243-0.32,0.521-0.607,0.79-0.886c0.295-0.306,0.574-0.595,0.795-0.909 c0.37-0.529,0.481-1.112,0.348-1.318l-1.793,0.147c-0.014,0.001-0.027,0.002-0.041,0.002c-0.183,0-0.353-0.1-0.44-0.263 c-0.18-0.336-12.884-23.884-32.607-59.89L40.715,416.01c-0.082,0.118-0.211,0.194-0.354,0.211 c-0.019,0.002-0.038,0.003-0.056,0.003c-0.124,0-0.243-0.046-0.335-0.129l-1.51-1.366c-0.829,0.944-1.637,2.005-2.507,3.309 c1.129,3.948,2.309,8.018,4.272,11.679c1.546,2.884,4.292,6.742,8.592,8.75c1.593,0.744,3.347,1.203,5.043,1.647 c1.374,0.36,2.794,0.732,4.15,1.256c3.002,1.16,6.257,3.606,6.389,6.995c0.011,0.27-0.194,0.498-0.463,0.519 c-8.085,0.594-16.666,1.412-26.219,2.499c-0.095,0.087-0.212,0.138-0.333,0.138c-0.118,0-0.237-0.042-0.332-0.126 c-13.335-11.839-25.765-24.888-36.943-38.785c-0.154-0.192-0.146-0.468,0.02-0.649l1.149-1.266 c3.217-3.544,6.256-6.892,9.359-10.084c1.072-1.104,2.248-2.195,3.788-2.352c0.367-0.039,0.723-0.017,1.066,0.004 c0.222,0.014,0.444,0.031,0.665,0.022c1.032-0.023,2.041-0.497,2.732-1.262l-3.126-2.828c-0.182-0.165-0.218-0.438-0.084-0.644 l42.129-64.891c-3.32-6.022-6.747-12.228-10.267-18.592C11.67,245.231,31.099,200.218,31.3,199.771 c0.113-0.252,0.41-0.364,0.661-0.251c0.252,0.113,0.365,0.409,0.252,0.661c-0.198,0.443-19.41,45.032,16.204,109.404 c10.681,19.306,20.509,37.179,29.05,52.768c0.034,0.014,0.07,0.022,0.101,0.044c0.168,0.118,0.241,0.321,0.202,0.51 c18.733,34.196,31.194,57.265,32.715,60.082l24.287-1.985L81.764,238.474c-0.077-0.266,0.075-0.543,0.34-0.62 c0.266-0.08,0.542,0.075,0.62,0.341l20.411,70.284c20.065-70.165-0.08-110.873-0.288-111.279c-0.126-0.246-0.028-0.547,0.218-0.673 c0.246-0.123,0.546-0.029,0.673,0.217c0.211,0.412,20.84,42.015-0.072,113.518c-0.002,0.005-0.007,0.008-0.009,0.013 l32.246,111.037c0.042,0.145,0.017,0.3-0.068,0.423c-0.086,0.124-0.222,0.203-0.371,0.215l-0.883,0.072 c0.423,0.792,0.84,1.622,1.168,2.591c8.656,3.978,19.205,7.476,29.274,10.72l0.137,0.044c1.964,0.632,3.995,1.286,5.602,2.544 C172.641,439.392,173.527,441.632,172.968,443.492z M1.158,412.316c0.198,0.245,0.402,0.485,0.601,0.729 c-0.188-0.326-0.334-0.619-0.455-0.89L1.158,412.316z M76.617,362.883c-5.577-10.18-11.705-21.336-18.26-33.23L16.75,393.738 l21.955,19.863c0.02,0.014,0.043,0.02,0.062,0.037c0.017,0.016,0.025,0.037,0.039,0.054l1.415,1.28L76.617,362.883z M77.516,44.263 c-0.159,0.42-0.535,0.662-0.737,0.791c-1.316,0.843-2.808,1.437-4.434,1.794c0.604,5.073,1.078,10.034,0.491,14.901 c-0.351,2.909-1.331,5.758-2.818,8.386c0.053-0.005,0.105-0.018,0.159-0.006c0.177,0.041,0.317,0.175,0.367,0.35l3.699,13.022 c0.055,0.195-0.012,0.404-0.171,0.53c-0.09,0.071-0.2,0.107-0.31,0.107c-0.084,0-0.169-0.021-0.246-0.064l-10.018-5.649 l-9.377,13.109c-0.096,0.134-0.249,0.209-0.407,0.209c-0.057,0-0.114-0.01-0.169-0.029l-24.508-8.819 c-0.145-0.052-0.257-0.168-0.306-0.314c-0.048-0.146-0.026-0.307,0.06-0.435l5.749-8.578L33.39,61.797 c-0.301-0.266-0.532-0.586-0.724-0.865l-7.148-10.375c-1.592-2.311-3.238-4.7-4.577-7.236c-4.584-8.683-5.148-18.658-1.508-26.684 c1.18-2.602,3.33-5.972,6.872-7.252c1.705-0.616,3.519-0.67,5.273-0.723c0.633-0.019,1.267-0.038,1.894-0.083 c2.211-0.159,4.406-0.659,6.647-1.2c8.234-1.99,16.485-4.354,24.522-7.027c0.677-0.225,1.701-0.565,2.623-0.169 c0.394,0.169,0.703,0.443,0.979,0.714c2.373,2.332,3.63,5.704,3.363,9.021c-0.246,3.066-1.827,5.997-4.346,8.162l2.073,13.118 c0.349,2.203,0.744,4.7,2.021,6.662c1.188,1.825,3.019,3.088,5.113,4.433C77.723,43.098,77.664,43.873,77.516,44.263z M33.834,46.638c0.415,0.326,0.918,0.518,1.418,0.688c1.764,0.599,3.858,0.929,5.371-0.157c-1.234-3.285-2.153-6.688-2.74-10.148 c-1.743-0.78-3.561-0.926-4.676,0.185c-0.422,0.42-0.684,0.975-0.877,1.538c-0.728,2.121-0.556,4.535,0.466,6.532 C33.058,45.788,33.381,46.283,33.834,46.638z M62.395,78.25l-27.099-4.012L29.98,82.17l23.549,8.474L62.395,78.25z M65.185,75.267 c-0.053-0.137-0.052-0.292,0.026-0.428c0.553-0.96,1.119-1.943,1.274-2.932c-1.668,2.059-3.863,3.718-6.298,4.74 c-0.063,0.026-0.128,0.039-0.194,0.039c-0.146,0-0.287-0.063-0.384-0.18c-0.141-0.169-0.154-0.411-0.034-0.594 c0.771-1.172,1.086-2.641,0.901-4.034c-0.743,1.13-1.618,2.167-2.611,3.091c-0.116,0.107-0.275,0.153-0.43,0.126 c-0.155-0.028-0.288-0.128-0.358-0.269c-0.771-1.544-1.446-3.146-2.02-4.78c-0.14,1.057-0.21,2.124-0.209,3.188 c0,0.208-0.129,0.395-0.324,0.468c-0.193,0.076-0.415,0.019-0.552-0.138l-2.117-2.421c-2.483-2.843-5.049-5.78-7.722-8.724 l-8.828-0.051c-0.259-0.002-0.557-0.01-0.86-0.064l1.071,10.956l27.767,4.111L65.185,75.267z M54.531,67.657 c-0.028-0.082-0.061-0.162-0.089-0.244c-0.007,0.143-0.004,0.287-0.01,0.43C54.451,67.772,54.486,67.711,54.531,67.657z M69.301,55.087c0.447-0.642,0.449-1.562-0.264-2.565c-2.129-0.268-4.259-0.537-6.388-0.805c-0.169-0.021-0.349-0.041-0.501,0.036 c-0.262,0.131-0.321,0.478-0.306,0.771c0.058,1.154,0.764,2.221,1.728,2.857c0.964,0.636,2.157,0.868,3.31,0.8 C67.796,56.127,68.777,55.84,69.301,55.087z M66.886,69.797c-0.027,0.079-0.067,0.153-0.097,0.231 c0.044-0.011,0.088-0.018,0.133-0.016C66.908,69.941,66.904,69.868,66.886,69.797z M69.83,71.621l-5.525,6.11l8.645,4.875 L69.83,71.621z M76.581,43.909c0.065-0.171-0.198-0.483-0.653-0.776c-2.193-1.409-4.114-2.738-5.411-4.729 c-1.394-2.141-1.807-4.75-2.171-7.051l-2.003-12.676c-5.967,1.181-12.071,1.794-18.152,1.817c-1.59,4.555-3.482,8.495-5.773,12.025 c1.185,5.921,2.777,11.814,4.734,17.521c0.114,0.333,0.243,0.709,0.471,0.947c0.182,0.19,0.458,0.327,0.723,0.458 c1.753,0.871,3.56,1.768,5.573,2.576c0.346-2.679,1.377-5.167,2.939-7.063c1.766-2.145,4.211-3.537,6.77-3.897 c-0.06-0.429,0.04-0.893,0.304-1.281c0.284-0.417,0.721-0.741,1.298-0.96c0.651-0.247,1.586-0.291,2.077,0.402 c0.159,0.226,0.106,0.538-0.119,0.697c-0.225,0.159-0.537,0.107-0.697-0.119c-0.141-0.2-0.571-0.171-0.905-0.045 c-0.263,0.1-0.619,0.283-0.826,0.588c-0.165,0.243-0.204,0.547-0.096,0.757c0.162,0.315,0.638,0.453,1.008,0.513l0.309,0.045 c0.463,0.064,0.988,0.136,1.451,0.426c0.33,0.206,0.574,0.491,0.789,0.742c0.08,0.093,0.16,0.186,0.244,0.274 c0.647,0.681,1.595,1.05,2.531,0.989c1.943-0.266,3.719-0.898,5.245-1.875C76.344,44.146,76.539,44.021,76.581,43.909z"
                                    style="fill: inherit;"></path>
                            </g>
                        </g>
                    </svg>
                    <svg xmlns="http://www.w3.org/2000/svg" class="login-woman-svg"
                        xmlns:xlink="http://www.w3.org/1999/xlink" preserveAspectRatio="xMidYMid meet" version="1.0"
                        viewBox="-0.1 -1.3 282.1 466.4" zoomAndPan="magnify" style="fill: rgb(23, 53, 84);" role="img"
                        aria-label="Lined Corporate Woman Running To Work">
                        <g id="__id1293_smsx1up8tc">
                            <path
                                d="M280.779,361.862c-2.495-9.551-7.26-18.321-11.866-26.804l-4.588-8.447 c-0.54-0.995-1.151-2.085-2.022-2.963c-0.002-0.005-0.011-0.021-0.011-0.021c-0.011-0.007-0.024-0.013-0.035-0.02 c-0.211-0.208-0.422-0.417-0.667-0.594c-2.711-1.958-6.46-0.884-8.848,0.628c-1.121,0.711-2.156,1.56-3.156,2.381 c-1.237,1.015-2.516,2.063-3.927,2.813c-0.854,0.454-1.759,0.798-2.69,1.069c-0.532,0.13-1.06,0.276-1.595,0.391 c-0.058,0.012-0.115,0.024-0.173,0.036c-0.266,0.056-0.536,0.095-0.804,0.147c-0.841,0.141-1.684,0.25-2.515,0.339 c-11.527,1.24-23.45,0.002-34.474-3.571l-10.131-3.403c-1.217-0.409-2.271-0.835-2.983-1.58c0-0.001,0-0.001-0.001-0.002 c-6.576-8.955-12.871-18.287-18.719-27.739c1.126-0.988,2.241-2.024,3.335-3.118c0.17-0.17,0.195-0.438,0.059-0.637 c-0.246-0.359-24.594-36.176-18.168-52.635c6.059-15.521,5.55-33.724,5.427-36.577l31.801,2.067c0.011,0,0.021,0.001,0.032,0.001 c0.126,0,0.248-0.047,0.341-0.134c0.101-0.094,0.158-0.225,0.159-0.362l0.209-25.649c1.669-0.276,3.32-0.687,4.92-1.309 c4.699-1.826,8.114-5.331,9.136-9.377c0.499-1.974,0.486-4.218-0.04-6.861c-0.861-4.325-2.753-8.347-4.668-12.048 c-5.624-10.866-12.545-21.045-20.566-30.278c0.063-0.106,0.074-0.227,0.053-0.344c0.734-0.659,1.454-1.328,2.192-1.986 c-5.789-6.849-13.237-12.298-18.145-19.804c-2.5-3.823-4.355-8.191-7.786-11.205c-0.677-0.594-1.404-1.118-2.162-1.598 c2.377-0.687,4.527-2.217,5.875-4.302c2.044-3.162,2.237-7.392,0.638-10.801c-1.569-3.343-4.601-5.749-6.675-8.805 c-1.634-2.407-2.646-5.181-3.448-7.978c-1.389-4.843-2.196-9.853-2.398-14.887c-0.113-2.812-0.039-5.643-0.465-8.425 c-0.491-3.201-1.632-6.26-2.767-9.293c-1.147-3.067-2.334-6.203-4.463-8.691c-1.459-1.705-3.306-3.036-5.229-4.192 c-7.692-4.625-17.169-6.624-25.855-4.36c-3.329,0.867-6.476,2.327-9.495,3.977c-2.684,1.467-5.325,3.127-7.333,5.435 c-1.372,1.577-2.409,3.411-3.436,5.232c-1.946,3.449-3.917,6.962-4.787,10.825c-0.87,3.864-0.494,8.201,1.921,11.34 c1.627,2.115,4.119,3.702,5.095,6.118c0.122,0.999,0.254,1.997,0.397,2.994c-0.086,0.981-0.313,1.967-0.534,2.928 c-0.795,3.461-1.437,6.999-1.236,10.545c0.201,3.545,1.311,7.132,3.663,9.793c2.547,2.883,6.31,4.43,10.083,5.178 c1.291,0.256,2.668,0.406,3.946,0.181c-0.703,0.322-1.328,0.842-1.771,1.417c-0.026,0.034-0.047,0.07-0.072,0.103 c-0.858,0.555-1.695,1.2-2.548,1.723c-5.425,3.326-12.751,1.642-18.376,4.618c-3.11,1.645-5.346,4.537-7.347,7.431 c-4.176,6.039-7.77,12.48-10.726,19.202c-0.024-0.001-0.046-0.012-0.071-0.009c-0.142,0.011-0.273,0.082-0.359,0.196 c-6.42,8.444-12.556,17.229-18.335,26.164c-4.74-7.531-9.734-16.066-13.825-23.634c0.104-0.036,0.206-0.078,0.31-0.113 c0.567-0.189,1.154-0.385,1.681-0.751c0.757-0.525,1.274-1.395,1.417-2.386c0.107-0.743-0.007-1.479-0.313-2.104 c0.331-0.252,0.63-0.584,0.871-0.997c0.92-1.58,0.752-3.509,0.504-5.013c-0.429-2.596-1.213-5.119-2.332-7.499 c-1.519-3.234-3.451-5.163-5.742-5.735c-3.431-0.854-6.681,1.581-8.314,3.108c-0.577,0.539-1.133,1.108-1.689,1.678 c-1.521,1.558-2.958,3.028-4.807,3.923c-0.066,0.032-0.12,0.078-0.165,0.131c-2.149,1.138-4.08,2.397-4.933,4.507 c-0.428,1.059-0.557,2.291-0.406,3.876c0.268,2.811,1.241,5.538,2.214,8.09c0.49,1.286,1.124,2.711,2.438,3.345 c0.44,0.212,0.931,0.317,1.438,0.317c0.66,0,1.349-0.178,1.99-0.529c0.117-0.064,0.229-0.146,0.343-0.221 c3.837,13.896,7.832,28.232,13.991,41.56c0.218,0.472,0.534,1.246,0.903,2.148c1.05,2.57,2.356,5.768,3.3,6.881 c1.453,1.711,3.265,2.795,5.102,3.051c0.322,0.045,0.64,0.066,0.954,0.066c3.164,0,5.945-2.182,8.492-4.583 c7.599-7.164,14.751-14.933,21.277-23.094c0.2,0.393,0.389,0.792,0.609,1.173c0.092,0.16,0.26,0.25,0.433,0.25 c0.028,0,0.055-0.018,0.083-0.022c0.915,2.337,1.447,4.824,1.529,7.332l-4.747,26.853l-0.055-0.008l-0.156,0.907 c-0.261-0.033-0.507,0.143-0.553,0.407L50.185,313.734c-0.045,0.262,0.123,0.514,0.382,0.572c0.103,0.023,0.323,0.073,0.636,0.141 c-0.358,2.188-15.661,95.596-20.101,121.565c-0.766,4.478-3.861,8.205-8.079,9.729c-2.825,1.021-5.755,1.746-8.709,2.153 c-0.55,0.075-1.106,0.143-1.663,0.209c-2.778,0.332-5.649,0.676-8.065,2.194c-2.006,1.261-3.565,3.282-4.388,5.691 c-0.159,0.464-0.283,0.965-0.123,1.477c0.303,0.961,1.332,1.264,2.195,1.42c14.695,2.657,29.323,4.683,40.424,6.15 c0.152,0.02,0.304,0.029,0.455,0.029c1.553,0,2.966-1.044,3.395-2.574c0.573-2.044,1.068-3.958,1.467-5.811 c0.566-2.392,0.955-4.825,1.11-7.278c0.024-0.374,0.017-0.779-0.076-1.14c0.024-2.032-0.127-4.078-0.278-6.061 c-0.177-2.324-0.345-4.52-0.248-6.649c1.645-14.819,6.17-29.269,10.38-41.448c3.961-11.46,8.384-22.968,12.661-34.096 l15.398-40.069c4.109,0.339,8.231,0.546,12.166,0.546c8.614-0.001,16.335-0.994,21.055-3.775c0.108-0.063,0.189-0.167,0.225-0.287 l6.222-20.797l5.399,16.838c0.073,0.228,0.288,0.378,0.536,0.344c0.068-0.008,2.071-0.264,5.317-1.053 c0.002,0.003,0.002,0.006,0.004,0.009l20.495,27.971c2.857,3.898,5.812,7.931,9.774,10.93c4.228,3.2,9.452,4.798,13.942,4.274 l58.187-4.484c3.479-0.266,7.804-0.6,11.285,1.138c2.934,1.464,5.029,4.224,7.057,6.893l0.115,0.152 c1.862,2.451,3.743,4.816,5.924,6.845c0.004,0.004,0.008,0.007,0.011,0.011c0.171,0.159,0.338,0.322,0.513,0.477 c0.345,0.312,0.702,0.612,1.072,0.894c0.454,0.359,0.919,0.705,1.403,1.031c2.923,1.97,6.147,3,9.224,3 c1.169,0,2.317-0.149,3.419-0.451c0.132-0.036,0.243-0.125,0.308-0.246C282.003,367.608,281.477,364.531,280.779,361.862z M177.658,154.782c0.1,0.123,0.199,0.248,0.299,0.371c-0.015-0.003-0.031-0.004-0.047-0.007 C177.843,155.047,177.759,154.926,177.658,154.782z M165.128,176.351l19.875,0.703C178.374,177.087,171.73,176.821,165.128,176.351 z M112.966,74.861c0.172-0.101,0.329-0.228,0.483-0.358c-0.061,0.247-0.139,0.49-0.211,0.734c-0.305-0.071-0.61-0.091-0.913-0.062 C112.545,75.086,112.759,74.983,112.966,74.861z M74.621,127.251c-0.203,1.977-0.219,3.981-0.034,5.98 C74.36,131.237,74.373,129.227,74.621,127.251z"
                                style="fill: rgb(255, 255, 255);"></path>
                        </g>
                        <g>
                            <g id="__id1294_smsx1up8tc">
                                <path
                                    d="M113.021,75.828c-2.323-0.249-4.219,1.676-6.211,2.897c-5.425,3.326-12.751,1.642-18.376,4.618 c-3.11,1.645-5.346,4.537-7.347,7.431c-4.271,6.176-7.938,12.77-10.931,19.658c0,0,7.087,6.857,7.452,6.628 c-4.087,7.889-4.192,17.72-0.393,26.136c1.054,2.493,1.645,5.181,1.734,7.887l-5.052,28.577l29.612,3.417 c0,0,0.325-8.939,0.532-9.166c-1.186-0.592-1.889-1.86-2.261-3.132c-0.372-1.272-0.486-2.61-0.881-3.875 c-0.355-1.137-0.938-2.225-1.012-3.413c-0.068-1.087,0.298-2.19,0.074-3.256c-0.375-1.786-2.279-2.94-2.669-4.722 c-0.354-1.619,0.712-3.287,2.138-4.13c1.427-0.843,3.137-1.032,4.791-1.134c-0.923-0.46-1.048-1.824-0.505-2.701 c0.543-0.877,1.525-1.368,2.472-1.776l1.055-11.607l5.823,0.456l4.049-3.783l17.243,0.764l3.866,4.572 c0,0,25.996,0.413,26.173,0.609c0.446-1.978,1.966-3.509,3.428-4.915c5.864-5.64,11.861-11.142,17.971-16.59 c-5.789-6.849-13.237-12.298-18.145-19.804c-2.5-3.823-4.355-8.191-7.786-11.205c-2.411-2.117-5.424-3.4-8.389-4.627 c-4.53-1.874-9.081-3.699-13.651-5.473c0,0-22.669,18.59-22.426,18.464c-0.904-4.591-2.015-9.14-3.329-13.631 c-0.039-0.134-0.079-0.274-0.052-0.411c0.022-0.109,0.084-0.206,0.145-0.299C112.579,77.653,112.994,77.017,113.021,75.828z"
                                    style="fill: rgb(255, 255, 255);"></path>
                            </g>
                            <g id="__id1295_smsx1up8tc">
                                <path
                                    d="M102.536,197.101l59.467,4.114c0.616,12.778-1.448,25.678-6.019,37.626 c-1.821,3.971-0.816,9.278,0.528,14.084c2.49,8.909,6.019,17.528,10.492,25.625c-0.122,0.392,7.49,12.447,7.49,12.447 c-11.559,10.989-26.315,18.575-41.978,21.58c0.016-0.196-5.623-18.365-5.623-18.365l-6.641,21.958 c-6.285,3.203-13.574,3.707-20.628,3.72c-12.302,0.022-24.605-1.269-36.634-3.843c-0.256,0.063-12.339-1.904-12.339-1.904 l23.497-136.215l29.325,4.032L102.536,197.101z M137.612,136.128l-3.159-4.288l-17.49-0.733l-4.57,3.498l-5.078-0.508l-0.9,11.682 c3.06,0.352,6.121,0.704,9.181,1.056c0.628,0.072,1.268,0.148,1.843,0.41c0.662,0.303,1.191,0.831,1.69,1.362 c1.861,1.98,3.542,4.155,5.674,5.84s4.858,2.861,7.539,2.416c15.106-3.235,30.667-3.823,45.754-1.411 c0.212-0.006-13.615-18.444-13.615-18.444L137.612,136.128z M169.977,177.187l-20.65-1.734l-19.058-2.646 c-0.957-0.59-2.203-0.476-3.253-0.073s-1.979,1.062-2.989,1.556c-3.559,1.738-7.748,1.289-11.678,0.8 c-2.699-0.336-5.397-0.671-8.096-1.007c-0.325-0.206-1.743,22.966-1.743,22.966l91.349,5.99l0.552-25.694L169.977,177.187z"
                                    style="fill: rgb(23, 53, 84);"></path>
                            </g>
                            <g id="__id1296_smsx1up8tc">
                                <path
                                    d="M103.902,11.027c2.894-0.883,6.141-0.996,8.854,0.342c6.588,3.248,7.017,12.814,12.465,17.741 c2.668,2.413,6.693,3.965,7.419,7.488c0.989-2.481,2.737-5.085,5.392-5.379c2.303-0.255,4.494,1.463,5.392,3.599 c0.898,2.136,0.736,4.574,0.241,6.838c-0.787,3.598-3.164,7.56-6.847,7.561c-0.559,8.241-0.107,16.551,1.342,24.683 c-0.352,0.551-23.037,18.555-23.037,18.555l-3.004-13.781c1.714-2.706,2.604-5.926,2.521-9.128 c-2.648,2.222-6.706,2.231-9.744,0.582c-3.038-1.649-5.133-4.684-6.339-7.924c-1.206-3.239-1.619-6.711-2.023-10.144 c-0.994-8.448-1.989-16.896-2.983-25.345c-0.329-2.793-0.608-5.829,0.862-8.226C97.75,13.052,101.008,11.91,103.902,11.027z M77.203,117.254l-6.894-6.819l-18.749,26.489c0,0-14.526-24.218-14.646-24.508c2.126,0.025,4.028-2.055,3.814-4.17 c-0.037-0.363-0.126-0.724-0.097-1.087c0.052-0.652,0.47-1.206,0.774-1.786c0.762-1.455,0.827-3.195,0.506-4.805 c-0.321-1.611-1-3.124-1.675-4.621c-0.721-1.6-1.441-3.2-2.151-4.699c-1.434-2.18-4.284-3.323-6.827-2.736 c-3.906,0.901-6.056,5.054-9.369,7.312c-1.382,0.942-2.969,1.549-4.35,2.491c-1.272,0.867-2.367,2.033-2.983,3.443 c-0.617,1.41-0.72,3.073-0.265,4.513c0.611,2.61,1.457,5.164,2.524,7.623c0.301,0.693,0.64,1.405,1.235,1.871 c0.617,0.483,1.44,0.637,2.222,0.584c0.781-0.054,1.536-0.296,2.281-0.537l4.288,15.981l5.676,15.028 c0,0,6.275,15.426,6.183,15.524c0.533,2.062,1.651,3.999,3.303,5.342c1.652,1.343,3.855,2.048,5.96,1.721 c2.299-0.357,4.239-1.842,6.068-3.278l7.846-8.19c0,0,14.268-16.126,14.538-15.846c-0.177-1.457-0.851-2.799-1.346-4.181 C72.852,131.72,74.292,124.833,77.203,117.254z M179.273,156.036c-7.325-0.86-14.675-1.722-22.05-1.621 c-8.848,0.12-17.611,1.622-26.412,2.545c-1.77,0.018-3.215-0.463-4.433-1.222c-1.219-0.759-2.246-1.782-3.262-2.796 c-1.44-1.437-2.88-2.875-4.32-4.312c-0.624-0.623-1.272-1.262-2.091-1.59c-0.555-0.222-1.158-0.289-1.753-0.347 c-2.981-0.291-5.977-0.429-8.971-0.412c-1.04,0.43-1.619,0.698-2.036,1.154c-0.417,0.456-0.634,1.154-0.357,1.706 c0.261,0.517,0.893,0.812,1.037,1.373c-1.678-0.154-3.439-0.145-4.961,0.578c-1.523,0.723-2.734,2.328-2.527,4.001 c0.237,1.909,2.122,3.226,2.627,5.082c0.325,1.197,0.038,2.476,0.213,3.704c0.146,1.023,0.605,1.969,0.928,2.95 c0.792,2.405,0.877,5.244,2.722,6.978c4.771,1.695,9.715,2.289,14.599,1.963c1.09-0.073,2.185-0.193,3.226-0.523 c1.434-0.456,2.712-1.294,4.093-1.89c1.381-0.596,2.985-0.941,4.376-0.366c0.217,0.098,21.4,2.872,21.4,2.872l42.572,1.505 c2.11-0.519,4.23-1.041,6.233-1.881c2.004-0.84,3.903-2.019,5.313-3.671c1.559-1.229,2.537-3.086,2.937-5.009 c0.4-1.923,0.269-3.918-0.027-5.86c-0.582-3.812-1.798-7.525-3.583-10.943c-5.684-11.785-13.107-22.746-21.87-32.504 c-0.03,0.027-19.156,18.275-19.156,18.275L179.273,156.036z M86.059,319.523l-26.698-3.86l-7.559-1.608 c0,0-20.551,123.898-20.784,124.297c-1.149,1.796-2.298,3.592-3.448,5.388c3.102,1.538,6.204,3.076,9.306,4.614 c1.004,0.498,2.014,0.998,3.089,1.311c1.987,0.58,4.163,0.489,6.095-0.254c0.629-0.242,1.257-0.571,1.651-1.119 c0.527-0.734,0.536-1.707,0.525-2.61c-0.05-3.93-0.1-7.86,0.008-11.538c1.097-10.473,3.564-20.801,7.316-30.64l5.361-17.102 l8.252-22.252l8.808-22.345L86.059,319.523z M137.975,310.84c0,0,12.844,17.172,12.438,17.521 c4.354,4.583,7.563,10.116,11.488,15.071c3.925,4.955,8.888,9.508,15.289,10.87c4.324-0.005,8.647-0.198,12.954-0.578 c0,0,48.425-3.733,48.835-3.589c4.814-0.928,9.904-0.37,14.402,1.58c1.263-4.113,1.077-8.655-0.52-12.65 c-1.596-3.995-4.591-7.416-8.19-9.577c-8.906,2.471-18.345,2.719-27.495,1.416c-9.15-1.303-18.034-4.128-26.559-7.698 c0,0-19.519-28.51-19.52-28.721c-4.676,3.561-9.385,7.142-14.624,9.807c-3.474,1.767-7.145,3.111-10.806,4.45 C143.356,309.589,141.044,310.434,137.975,310.84z"
                                    style="fill: rgb(244, 244, 244);"></path>
                            </g>
                            <g id="__id1297_smsx1up8tc">
                                <path
                                    d="M110.353,31.719c2.093-1.712,5.471-1.536,7.375,0.388c0.098,0.099,0.227,0.148,0.355,0.148 c0.127,0,0.254-0.048,0.352-0.145c0.196-0.194,0.198-0.511,0.004-0.707c-2.25-2.274-6.242-2.483-8.718-0.459 c-0.214,0.175-0.246,0.49-0.071,0.704C109.824,31.862,110.139,31.893,110.353,31.719z"
                                    style="fill: inherit;"></path>
                                <path
                                    d="M101.752,49.955c0.25,0.452,0.745,0.649,1.213,0.649c0.138,0,0.273-0.017,0.4-0.05c0.5-0.131,0.891-0.456,1.204-0.717 l2.8-2.332c0.212-0.177,0.241-0.492,0.064-0.704c-0.176-0.213-0.492-0.241-0.704-0.064l-2.8,2.333 c-0.262,0.218-0.532,0.443-0.816,0.518c-0.194,0.051-0.424-0.004-0.487-0.118c-0.055-0.099-0.042-0.299-0.038-0.365 c0.047-0.726,0.342-1.45,0.627-2.149l3.047-7.456c0.104-0.255-0.018-0.547-0.274-0.652c-0.253-0.105-0.547,0.019-0.652,0.274 l-3.047,7.456c-0.301,0.738-0.642,1.574-0.7,2.462C101.573,49.3,101.576,49.64,101.752,49.955z"
                                    style="fill: inherit;"></path>
                                <path
                                    d="M106.967,56.733c0.056,0.228,0.261,0.381,0.485,0.381c0.04,0,0.08-0.004,0.12-0.014c2.429-0.596,4.546-2.396,5.524-4.699 c0.108-0.254-0.01-0.547-0.265-0.656c-0.251-0.107-0.547,0.01-0.656,0.265c-0.857,2.018-2.712,3.596-4.842,4.118 C107.066,56.194,106.902,56.465,106.967,56.733z"
                                    style="fill: inherit;"></path>
                                <path
                                    d="M16.067,113.409c0.49,1.286,1.124,2.711,2.438,3.345c0.44,0.212,0.931,0.317,1.438,0.317c0.66,0,1.349-0.178,1.99-0.529 c0.117-0.064,0.229-0.146,0.343-0.221c3.837,13.896,7.832,28.232,13.991,41.56c0.218,0.472,0.534,1.246,0.903,2.148 c1.05,2.57,2.356,5.768,3.3,6.881c1.453,1.711,3.265,2.795,5.102,3.051c0.322,0.045,0.64,0.066,0.954,0.066 c3.164,0,5.945-2.182,8.492-4.583c7.599-7.164,14.751-14.933,21.277-23.094c0.2,0.393,0.389,0.792,0.609,1.173 c0.092,0.16,0.26,0.25,0.433,0.25c0.085,0,0.171-0.021,0.25-0.067c0.239-0.138,0.321-0.444,0.182-0.683 c-2.891-4.998-3.991-11.129-3.017-16.82c0.478-2.795,1.469-5.52,2.867-8.017c0.036-0.02,0.074-0.036,0.105-0.065 c0.108-0.101,0.156-0.238,0.154-0.374c1.414-2.413,3.207-4.603,5.313-6.404c0.111-0.095,0.175-0.233,0.175-0.38 c0-2.586-0.163-5.337-0.321-7.997c-0.017-0.275-0.239-0.483-0.529-0.469c-0.275,0.016-0.486,0.253-0.469,0.529 c0.152,2.566,0.31,5.218,0.318,7.709c-2.008,1.749-3.726,3.847-5.121,6.143c-2.158-2.304-4.375-4.656-6.569-6.771 c-0.104-0.099-0.242-0.152-0.386-0.139c-0.142,0.011-0.273,0.082-0.359,0.196c-6.42,8.444-12.556,17.229-18.335,26.164 c-4.74-7.531-9.734-16.066-13.825-23.634c0.104-0.036,0.206-0.078,0.31-0.113c0.567-0.189,1.154-0.385,1.681-0.751 c0.757-0.525,1.274-1.395,1.417-2.386c0.107-0.743-0.007-1.479-0.313-2.104c0.331-0.252,0.63-0.584,0.871-0.997 c0.92-1.58,0.752-3.509,0.504-5.013c-0.429-2.596-1.213-5.119-2.332-7.499c-1.519-3.234-3.451-5.163-5.742-5.735 c-3.431-0.854-6.681,1.581-8.314,3.108c-0.577,0.539-1.133,1.108-1.689,1.678c-1.521,1.558-2.958,3.028-4.807,3.923 c-0.066,0.032-0.12,0.078-0.165,0.131c-2.149,1.138-4.08,2.397-4.933,4.507c-0.428,1.059-0.557,2.291-0.406,3.876 C14.12,108.13,15.093,110.857,16.067,113.409z M48.363,142.302c0.083,0.052,0.174,0.076,0.265,0.076 c0.167,0,0.33-0.083,0.424-0.235c6.617-10.577,13.792-20.979,21.334-30.926c2.11,2.059,4.245,4.331,6.322,6.549 c-1.433,2.578-2.448,5.387-2.941,8.267c-0.877,5.124-0.132,10.588,2.035,15.337c-6.573,8.256-13.794,16.111-21.469,23.348 c-2.619,2.468-5.471,4.69-8.622,4.254c-1.594-0.223-3.184-1.184-4.478-2.708c-0.841-0.992-2.223-4.374-3.137-6.612 c-0.376-0.92-0.698-1.708-0.92-2.189c-6.185-13.382-10.187-27.828-14.047-41.811c0.396-0.381,0.782-0.842,1.171-1.4 c0.163-0.234,0.342-0.513,0.401-0.853c0.011-0.066,0.01-0.13,0.012-0.195c0.467,0.21,0.982,0.316,1.517,0.316 c0.643,0,1.303-0.138,1.913-0.364c-0.041,0.151-0.075,0.304-0.097,0.461c-0.115,0.82,0.099,1.579,0.585,2.081 c0.478,0.494,1.123,0.653,1.58,0.7c0.128,0.013,0.257,0.02,0.387,0.02c1.089,0,2.251-0.46,3.536-1.4 c0.282-0.206,0.558-0.422,0.834-0.638c0.625-0.489,1.224-0.948,1.877-1.292c4.182,7.738,9.312,16.501,14.154,24.172 c-0.933,1.451-1.882,2.897-2.794,4.355C48.058,141.847,48.129,142.156,48.363,142.302z M40.189,109.301 c-0.104,0.717-0.467,1.339-0.998,1.708c-0.409,0.284-0.904,0.449-1.428,0.624c-0.309,0.103-0.618,0.207-0.916,0.335 c-0.936,0.402-1.729,1.023-2.496,1.624c-0.268,0.209-0.535,0.419-0.808,0.618c-1.23,0.9-2.289,1.292-3.232,1.193 c-0.412-0.042-0.754-0.184-0.963-0.4c-0.267-0.275-0.384-0.742-0.313-1.247c0.061-0.436,0.243-0.868,0.438-1.289 c0.424-0.29,0.767-0.609,1.014-0.972c0.431-0.633,0.617-1.443,0.581-2.341c0.68,0.449,1.536,0.716,2.485,0.716 c0.062,0,0.124-0.001,0.186-0.003c1.109-0.038,2.053-0.409,2.657-1.045c0.516-0.544,0.82-1.31,0.874-2.183 c0.555,0.706,1.394,1.299,2.375,1.207c0.107-0.01,0.21-0.049,0.314-0.075C40.183,108.217,40.268,108.753,40.189,109.301z M15.185,101.818c0.804-1.989,2.857-3.174,5.07-4.311c0.067-0.034,0.12-0.083,0.163-0.138c1.711-0.981,3.107-2.404,4.459-3.789 c0.546-0.559,1.091-1.117,1.657-1.646c1.486-1.389,4.423-3.61,7.39-2.868c1.986,0.495,3.695,2.241,5.079,5.189 c1.079,2.297,1.836,4.732,2.25,7.237c0.221,1.338,0.377,3.042-0.382,4.347c-0.186,0.32-0.419,0.569-0.669,0.745 c-0.141-0.029-0.292-0.004-0.412,0.094c-0.049,0.039-0.086,0.088-0.115,0.139c-0.041,0.008-0.081,0.028-0.122,0.032 c-0.725,0.071-1.403-0.603-1.748-1.199c-0.207-0.356-0.367-0.742-0.537-1.151c-0.193-0.464-0.392-0.944-0.671-1.395 c-0.131-0.213-0.399-0.293-0.625-0.196c-0.228,0.1-0.349,0.352-0.282,0.591l0.032,0.117c0.338,1.225,0.542,1.964,0.555,2.671 c0.008,0.441-0.06,1.268-0.607,1.845c-0.569,0.6-1.476,0.717-1.965,0.734c-1.159,0.024-2.164-0.365-2.692-1.082 c-0.055-0.074-0.128-0.121-0.207-0.155c-0.157-0.529-0.35-1.042-0.547-1.535c-0.172-0.429-0.344-0.859-0.483-1.299 c-0.083-0.263-0.363-0.41-0.627-0.326c-0.264,0.083-0.41,0.364-0.326,0.627c0.146,0.464,0.327,0.917,0.507,1.369 c0.231,0.58,0.45,1.127,0.597,1.699c0.166,0.644,0.352,1.859-0.266,2.766c-0.143,0.21-0.333,0.406-0.571,0.589 c-0.171,0.015-0.33,0.111-0.409,0.277l0,0c-0.146,0.087-0.305,0.171-0.478,0.252c-1.208,0.572-2.89,0.748-3.73-0.219 c-0.036-0.041-0.08-0.069-0.125-0.096l-1.512-4.375c-0.09-0.261-0.376-0.398-0.636-0.309c-0.261,0.09-0.399,0.375-0.309,0.636 l1.696,4.906c0.074,0.214,0.157,0.457,0.126,0.633c-0.024,0.139-0.126,0.294-0.237,0.454c-0.675,0.968-1.318,1.599-2.025,1.987 c-0.839,0.458-1.802,0.53-2.513,0.188c-0.983-0.475-1.497-1.644-1.938-2.801c-0.989-2.591-1.897-5.14-2.154-7.828 C14.713,103.805,14.82,102.722,15.185,101.818z"
                                    style="fill: inherit;"></path>
                                <path
                                    d="M280.779,361.862c-2.495-9.551-7.26-18.321-11.866-26.804l-4.588-8.447c-0.54-0.995-1.151-2.085-2.022-2.963 c-0.002-0.005-0.011-0.021-0.011-0.021c-0.011-0.007-0.024-0.013-0.035-0.02c-0.211-0.208-0.422-0.417-0.667-0.594 c-2.711-1.958-6.46-0.884-8.848,0.628c-1.121,0.711-2.156,1.56-3.156,2.381c-1.237,1.015-2.516,2.063-3.927,2.813 c-2.373,1.262-5.141,1.698-7.777,1.982c-11.527,1.24-23.45,0.002-34.474-3.571l-10.131-3.403c-1.217-0.409-2.271-0.835-2.983-1.58 c0-0.001,0-0.001-0.001-0.002c-6.576-8.955-12.871-18.287-18.719-27.739c1.126-0.988,2.241-2.024,3.335-3.118 c0.17-0.17,0.195-0.438,0.059-0.637c-0.246-0.359-24.594-36.176-18.168-52.635c6.059-15.521,5.55-33.724,5.427-36.577 l31.801,2.067c0.011,0,0.021,0.001,0.032,0.001c0.126,0,0.248-0.047,0.341-0.134c0.101-0.094,0.158-0.225,0.159-0.362 l0.209-25.649c1.669-0.276,3.32-0.687,4.92-1.309c4.699-1.826,8.114-5.331,9.136-9.377c0.499-1.974,0.486-4.218-0.04-6.861 c-0.861-4.325-2.753-8.347-4.668-12.048c-5.624-10.866-12.545-21.045-20.566-30.278c0.111-0.189,0.096-0.432-0.063-0.597 c-0.157-0.163-0.395-0.189-0.586-0.091c-0.173-0.079-0.384-0.056-0.537,0.077c-0.156,0.138-0.206,0.351-0.142,0.537 l-18.311,17.622c-0.105-0.049-0.222-0.064-0.335-0.034c-2.85-3.333-5.581-6.81-8.117-10.371c-1.779-2.499-3.581-5.195-4.365-8.256 c-1.162-4.532,0.055-9.757,3.256-13.976c0.167-0.22,0.124-0.534-0.097-0.701c-0.218-0.167-0.532-0.124-0.7,0.096 c-3.384,4.46-4.665,10.004-3.428,14.829c0.826,3.227,2.686,6.012,4.52,8.588c2.719,3.819,5.657,7.544,8.73,11.096l-25.439-0.896 l-3.114-4.129c-0.09-0.119-0.229-0.192-0.379-0.198l-17.544-0.735c-0.131-0.013-0.257,0.04-0.354,0.126l-3.892,3.47l-5.429-0.307 c-0.274-0.021-0.506,0.19-0.527,0.462l-0.855,11.485c-0.002,0.025,0.007,0.048,0.009,0.073c-0.241,0.042-0.48,0.1-0.716,0.182 c-1.137,0.393-1.953,1.298-2.079,2.307c-0.076,0.604,0.106,1.229,0.475,1.809c-1.688,0.054-3.607,0.21-5.047,1.378 c-1.814,1.471-2.193,4.414-0.811,6.297c0.254,0.346,0.553,0.654,0.842,0.952c0.522,0.538,1.016,1.046,1.141,1.674 c0.089,0.448-0.018,0.937-0.13,1.454c-0.079,0.362-0.161,0.737-0.183,1.128c-0.063,1.104,0.352,2.101,0.753,3.065 c0.166,0.398,0.332,0.796,0.461,1.202c0.207,0.647,0.318,1.318,0.435,2.027c0.081,0.485,0.161,0.971,0.273,1.45 c0.361,1.551,1.02,2.672,1.958,3.333c0.067,0.047,0.143,0.075,0.213,0.118l-1.33,23c-0.016,0.274,0.192,0.51,0.467,0.528 l58.647,3.811c0.11,2.422,0.714,20.734-5.355,36.279c-6.349,16.261,15.365,49.251,18.041,53.219 c-16.746,16.545-37.878,20.289-41.058,20.77l-5.764-17.974c-0.066-0.209-0.221-0.34-0.481-0.348 c-0.219,0.002-0.411,0.146-0.475,0.356l-6.627,22.153c-15.209,8.679-63.009-1.373-68.252-2.513l23.171-134.021 c0.047-0.272-0.135-0.531-0.408-0.578c-0.271-0.048-0.53,0.135-0.578,0.408L50.185,313.734c-0.045,0.262,0.123,0.514,0.382,0.572 c0.103,0.023,0.323,0.073,0.636,0.141c-0.358,2.188-15.661,95.596-20.101,121.565c-0.766,4.478-3.861,8.205-8.079,9.729 c-2.825,1.021-5.755,1.746-8.709,2.153c-0.55,0.075-1.106,0.143-1.663,0.209c-2.778,0.332-5.649,0.676-8.065,2.194 c-2.006,1.261-3.565,3.282-4.388,5.691c-0.159,0.464-0.283,0.965-0.123,1.477c0.303,0.961,1.332,1.264,2.195,1.42 c14.695,2.657,29.323,4.683,40.424,6.15c0.152,0.02,0.304,0.029,0.455,0.029c1.553,0,2.966-1.044,3.395-2.574 c0.573-2.044,1.068-3.958,1.467-5.811c0.566-2.392,0.955-4.825,1.11-7.278c0.024-0.374,0.017-0.779-0.076-1.14 c0.024-2.032-0.127-4.078-0.278-6.061c-0.177-2.324-0.345-4.52-0.248-6.649c1.645-14.819,6.17-29.269,10.38-41.448 c3.961-11.46,8.384-22.968,12.661-34.096l15.398-40.069c4.109,0.339,8.231,0.546,12.166,0.546 c8.614-0.001,16.335-0.994,21.055-3.775c0.108-0.063,0.189-0.167,0.225-0.287l6.222-20.797l5.399,16.838 c0.073,0.228,0.288,0.378,0.536,0.344c0.068-0.008,2.071-0.264,5.317-1.053c0.002,0.003,0.002,0.006,0.004,0.009l20.495,27.971 c2.857,3.898,5.812,7.931,9.774,10.93c4.228,3.2,9.452,4.798,13.942,4.274l58.187-4.484c3.479-0.266,7.804-0.6,11.285,1.138 c2.934,1.464,5.029,4.224,7.057,6.893l0.115,0.152c1.862,2.451,3.743,4.816,5.924,6.845c0.004,0.004,0.008,0.007,0.011,0.011 c0.171,0.159,0.338,0.322,0.513,0.477c0.345,0.312,0.702,0.612,1.072,0.894c0.454,0.359,0.919,0.705,1.403,1.031 c2.923,1.97,6.147,3,9.224,3c1.169,0,2.317-0.149,3.419-0.451c0.132-0.036,0.243-0.125,0.308-0.246 C282.003,367.608,281.477,364.531,280.779,361.862z M107.659,134.782l5.145,0.291c0.141,0.012,0.262-0.038,0.361-0.126 l3.896-3.473l17.106,0.717l3.115,4.13c0.091,0.12,0.231,0.193,0.382,0.198l26.707,0.941c0.018,0.002,0.032-0.006,0.05-0.006 c4.299,6.038,8.839,11.977,13.537,17.698c-12.832-2.155-26.475-1.929-40.661,0.693c-3.66,0.677-7.807,1.442-10.926-0.581 c-2.149-1.407-3.847-3.403-5.4-5.327l-0.07-0.087c-0.82-1.016-1.668-2.066-2.825-2.773c-1.739-1.061-3.9-1.144-5.637-1.209 l-4.43-0.168c-0.37-0.014-0.763-0.023-1.162-0.012L107.659,134.782z M102.241,170.473c-0.106-0.458-0.183-0.922-0.26-1.386 c-0.118-0.713-0.24-1.451-0.469-2.168c-0.138-0.432-0.314-0.857-0.491-1.282c-0.375-0.899-0.728-1.749-0.678-2.625 c0.018-0.312,0.088-0.632,0.162-0.972c0.13-0.595,0.264-1.209,0.134-1.862c-0.183-0.917-0.803-1.557-1.404-2.175 c-0.278-0.286-0.541-0.557-0.754-0.847c-1.082-1.474-0.786-3.777,0.635-4.929c1.202-0.975,2.934-1.107,4.462-1.155 c3.844-0.123,7.732,0.105,11.541,0.67c0.278,0.042,0.528-0.147,0.568-0.421c0.041-0.273-0.148-0.527-0.421-0.568 c-3.454-0.512-6.966-0.732-10.467-0.691c-0.531-0.521-0.816-1.137-0.748-1.674c0.09-0.72,0.775-1.265,1.414-1.485 c0.779-0.27,1.659-0.235,2.507-0.204l4.43,0.168c1.705,0.065,3.637,0.139,5.154,1.064c1.009,0.616,1.801,1.598,2.568,2.547 l0.07,0.087c1.604,1.986,3.36,4.049,5.632,5.537c1.704,1.105,3.627,1.47,5.602,1.47c2.028,0,4.111-0.385,6.065-0.746 c16.269-3.008,31.83-2.843,46.246,0.491c0.266,0.065,0.537-0.106,0.6-0.375c0.062-0.269-0.105-0.538-0.375-0.6 c-1.488-0.344-2.99-0.646-4.501-0.923c-5.192-6.278-10.201-12.833-14.907-19.495l18.293-17.605 c7.947,9.158,14.808,19.251,20.382,30.023c1.882,3.636,3.739,7.58,4.576,11.783c0.496,2.494,0.513,4.594,0.052,6.42 c-0.943,3.733-4.131,6.982-8.528,8.69c-4.059,1.577-8.524,1.759-12.75,1.81c-18.928,0.233-38.01-2.086-55.925-4.481 c-1.99-1.042-4.006-0.31-5.355,0.338c-0.483,0.232-0.958,0.488-1.432,0.743c-1.029,0.555-2.001,1.079-3.066,1.37 c-1.509,0.411-3.124,0.325-4.647,0.199c-3.259-0.267-6.558-0.748-9.754-1.214c-0.875-0.128-1.866-0.272-2.597-0.787 C103.071,172.7,102.545,171.777,102.241,170.473z M104.415,174.595c0.63,0.205,1.277,0.314,1.846,0.397 c3.205,0.468,6.52,0.951,9.81,1.221c1.614,0.131,3.328,0.224,4.993-0.231c1.175-0.321,2.244-0.897,3.277-1.454 c0.46-0.248,0.921-0.497,1.391-0.722c1.856-0.893,3.295-0.994,4.525-0.318c0.054,0.029,0.112,0.049,0.174,0.057 c17.148,2.293,35.357,4.518,53.524,4.518c0.878,0,1.758-0.005,2.635-0.016c2.352-0.029,4.776-0.107,7.178-0.428l-0.204,24.97 l-90.428-5.877L104.415,174.595z M70.627,359.649c-4.28,11.137-8.706,22.652-12.673,34.129 c-4.228,12.231-8.773,26.747-10.432,41.696c-0.102,2.223,0.076,4.552,0.248,6.804c0.126,1.651,0.25,3.346,0.274,5.027 c-0.558-0.063-1.19,0.231-1.734,0.482c-2.89,1.333-6.395,1.248-9.218-0.223c-2.849-1.485-5.265-4.338-8.412-4.437 c1.746-1.903,2.956-4.302,3.408-6.946c4.41-25.79,19.533-118.092,20.095-121.521c4.783,1.023,19.069,3.902,33.74,5.189 L70.627,359.649z M240.206,349.458L182,353.943c-4.269,0.506-9.215-1.029-13.243-4.076c-3.846-2.911-6.757-6.883-9.571-10.725 l-20.26-27.65c7.46-1.925,20.278-6.429,31.879-16.313c5.734,9.259,11.898,18.399,18.329,27.185 c0.012,0.077,0.036,0.153,0.086,0.22c0.938,1.266,2.49,1.787,3.737,2.206l10.136,3.405c11.16,3.619,23.225,4.867,34.895,3.616 c2.291-0.247,4.679-0.615,6.877-1.513c-0.004,0.088,0.003,0.177,0.038,0.267c0.091,0.233,0.308,0.388,0.512,0.533 c3.101,2.205,5.598,5.303,6.891,8.882c1.26,3.488,1.322,7.423,0.015,10.89c-0.104-0.056-0.2-0.121-0.306-0.174 C248.285,348.836,243.804,349.181,240.206,349.458z"
                                    style="fill: inherit;"></path>
                                <path
                                    d="M94.881,43.862c0.122,0.999,0.254,1.997,0.397,2.994c-0.086,0.981-0.313,1.967-0.534,2.928 c-0.795,3.461-1.437,6.999-1.236,10.545c0.201,3.545,1.311,7.132,3.663,9.793c2.547,2.883,6.31,4.43,10.083,5.178 c1.291,0.256,2.668,0.406,3.946,0.181c-0.703,0.322-1.328,0.842-1.771,1.417c-0.562,0.731-0.944,1.559-1.313,2.359 c-0.219,0.475-0.445,0.965-0.702,1.415c-0.256,0.449-0.554,0.9-0.854,1.355c-1.087,1.648-2.32,3.516-1.596,5.491 c0.257,0.701,0.721,1.257,1.169,1.795c0.439,0.526,0.854,1.024,1.03,1.604c0.25,0.821,0.004,1.71-0.256,2.65 c-0.154,0.558-0.314,1.135-0.377,1.726c-0.174,1.631,0.401,3.152,0.958,4.623c0.33,0.871,0.671,1.772,0.837,2.665 c0.417,2.245-0.229,4.583-0.853,6.844c-0.114,0.415-0.228,0.827-0.336,1.239c-0.82,3.138-1.28,6.372-1.367,9.612 c-0.01,0.372,0.012,1.641,0.718,2.354c0.285,0.288,0.645,0.44,1.042,0.44c0.009,0,0.017,0,0.026,0 c0.539-0.009,0.977-0.313,1.334-0.609c1.145-0.947,2.177-2.153,3.348-3.909c1.801-2.703,3.274-5.673,4.698-8.545 c2.216-4.47,4.506-9.092,8.041-12.634c0.282-0.283,0.573-0.56,0.864-0.837c1-0.953,2.035-1.939,2.747-3.182 c0.451-0.787,0.75-1.64,1.039-2.464c0.313-0.894,0.61-1.738,1.081-2.493c1.06-1.697,2.921-2.771,4.721-3.811l0.585-0.339 c2.07-1.208,4.286-2.773,5.023-5.22c0.13-0.431,0.176-0.893,0.162-1.359c2.217,1.07,4.434,2.141,6.65,3.211 c1.942,0.938,3.929,1.889,6.07,2.139c3.74,0.438,7.616-1.489,9.66-4.652c2.044-3.162,2.237-7.392,0.638-10.801 c-1.569-3.343-4.601-5.749-6.675-8.805c-1.634-2.407-2.646-5.181-3.448-7.978c-1.389-4.843-2.196-9.853-2.398-14.887 c-0.113-2.812-0.039-5.643-0.465-8.425c-0.491-3.201-1.632-6.26-2.767-9.293c-1.147-3.067-2.334-6.203-4.463-8.691 c-1.459-1.705-3.306-3.036-5.229-4.192c-7.692-4.625-17.169-6.624-25.855-4.36c-3.329,0.867-6.476,2.327-9.495,3.977 c-2.684,1.467-5.325,3.127-7.333,5.435c-1.372,1.577-2.409,3.411-3.436,5.232c-1.946,3.449-3.917,6.962-4.787,10.825 c-0.87,3.864-0.494,8.201,1.921,11.34C91.413,39.859,93.904,41.445,94.881,43.862z M112.966,74.861 c0.172-0.101,0.329-0.228,0.483-0.358c-0.061,0.247-0.139,0.49-0.211,0.734c-0.305-0.071-0.61-0.091-0.913-0.062 C112.545,75.086,112.759,74.983,112.966,74.861z M140.079,78.738c-0.638,2.115-2.668,3.535-4.57,4.645l-0.581,0.337 c-1.906,1.1-3.877,2.238-5.068,4.147c-0.53,0.848-0.858,1.785-1.177,2.691c-0.286,0.818-0.558,1.59-0.963,2.298 c-0.641,1.116-1.577,2.009-2.569,2.955c-0.297,0.283-0.594,0.565-0.882,0.854c-3.65,3.658-5.978,8.354-8.229,12.896 c-1.41,2.844-2.868,5.786-4.634,8.435c-1.115,1.672-2.087,2.811-3.154,3.694c-0.235,0.195-0.484,0.375-0.712,0.379 c-0.115-0.005-0.24-0.042-0.341-0.143c-0.275-0.278-0.448-0.931-0.429-1.625c0.084-3.164,0.534-6.321,1.335-9.386 c0.106-0.407,0.219-0.815,0.333-1.226c0.654-2.371,1.332-4.822,0.872-7.293c-0.183-0.98-0.54-1.924-0.885-2.836 c-0.539-1.424-1.048-2.768-0.899-4.162c0.054-0.51,0.196-1.022,0.346-1.565c0.287-1.037,0.583-2.109,0.25-3.208 c-0.236-0.774-0.735-1.374-1.219-1.953c-0.412-0.495-0.801-0.961-0.999-1.499c-0.551-1.502,0.441-3.005,1.491-4.596 c0.312-0.473,0.622-0.943,0.889-1.411c0.278-0.487,0.513-0.998,0.741-1.491c0.362-0.785,0.704-1.527,1.198-2.169 c0.642-0.835,1.726-1.493,2.701-1.324c-0.389,1.012-0.836,1.68-1.427,2.081c-0.186,0.126-0.264,0.359-0.193,0.572 c1.507,4.52,2.613,9.287,3.287,14.169c0.025,0.185,0.152,0.34,0.328,0.403c0.055,0.02,0.111,0.029,0.167,0.029 c0.125,0,0.248-0.047,0.342-0.135c6.963-6.521,14.461-12.604,22.286-18.078c0.166-0.116,0.245-0.321,0.201-0.52 c-0.019-0.086-0.034-0.172-0.053-0.258c0.701,0.108,1.204,0.571,1.465,0.881C140.11,76.262,140.412,77.632,140.079,78.738z M103.83,12.357c1.265-0.414,2.594-0.688,3.923-0.612c3.271,0.189,6.088,2.48,7.967,5.165c1.878,2.684,3.038,5.794,4.586,8.682 c1.548,2.888,3.635,5.682,6.635,6.999c1.366,0.6,2.996,0.961,3.797,2.22c0.558,0.876,0.567,1.992,0.977,2.947 c0.096,0.223,0.22,0.445,0.419,0.584c0.518,0.365,1.278-0.021,1.577-0.579c0.031-0.058,0.047-0.121,0.072-0.181 c0.264,0.035,0.518-0.148,0.558-0.418c0.211-1.388,0.833-2.596,1.751-3.402c0.999-0.873,2.341-1.226,3.5-0.921 c1.127,0.297,2.141,1.234,2.712,2.506c0.471,1.045,0.679,2.303,0.654,3.957c-0.024,1.537-0.235,2.803-0.646,3.871 c-1.022,2.658-3.644,4.644-6.678,5.06c-0.23,0.032-0.408,0.218-0.43,0.45c-0.794,8.619-0.235,17.335,1.66,25.914 c-7.503,5.268-14.704,11.091-21.421,17.323c-0.673-4.491-1.707-8.878-3.08-13.061c0.928-0.787,1.401-1.966,1.683-2.819 c0.573-1.73,0.866-3.532,0.871-5.358c0-0.272-0.016-0.561-0.08-0.839c4.772-0.982,9.134-3.584,12.996-5.906 c0.236-0.143,0.313-0.45,0.171-0.687c-0.143-0.236-0.449-0.312-0.687-0.171c-4.078,2.452-8.295,4.979-13.03,5.863 c-0.189-0.102-0.426-0.081-0.586,0.078c-0.007,0.007-0.009,0.017-0.016,0.024c-5.059,0.767-9.899-0.837-12.417-4.153 c-1.424-1.875-2.125-4.249-2.668-6.327c-2.146-8.183-3.094-16.656-3.703-25.068c0.035,0.066,0.08,0.126,0.145,0.173 c0.089,0.064,0.191,0.095,0.292,0.095c0.155,0,0.308-0.072,0.406-0.207c0.629-0.871,1.642-1.453,2.71-1.558 c1.068-0.104,2.175,0.269,2.962,1c0.202,0.188,0.519,0.177,0.707-0.026c0.188-0.202,0.177-0.519-0.026-0.707 c-0.993-0.923-2.385-1.395-3.74-1.263c-1.349,0.132-2.629,0.868-3.423,1.967c-0.03,0.042-0.046,0.089-0.062,0.136 c-0.229-3.219-0.414-6.428-0.593-9.607c-0.001-0.026-0.014-0.047-0.019-0.072C94.281,17.758,98.415,14.128,103.83,12.357z"
                                    style="fill: inherit;"></path>
                                <path
                                    d="M111.129,40.425c0,0.616,0.499,1.115,1.115,1.115c0.616,0,1.115-0.499,1.115-1.115s-0.499-1.115-1.115-1.115 C111.628,39.31,111.129,39.81,111.129,40.425z"
                                    style="fill: inherit;"></path>
                                <path
                                    d="M100.244,40.425c-0.616,0-1.115,0.499-1.115,1.115c0,0.616,0.499,1.115,1.115,1.115c0.616,0,1.115-0.499,1.115-1.115 C101.358,40.924,100.859,40.425,100.244,40.425z"
                                    style="fill: inherit;"></path>
                            </g>
                        </g>
                    </svg>